<?xml version="1.0" standalone="no"?>
<!DOCTYPE svg PUBLIC "-//W3C//DTD SVG 1.1//EN" "http://www.w3.org/Graphics/SVG/1.1/DTD/svg11.dtd" >
<svg>
<metadata>
Created by FontForge 20090914 at Fri Jul  1 16:33:48 2016
 By www-data
Copyright (c) 2011 Natanael Gama (exo@ndiscovered.com), with Reserved Font Name "Exo"
</metadata>
<defs>
<font id="Exo-Italic" horiz-adv-x="603" >
  <font-face 
    font-family="Exo"
    font-weight="400"
    font-style="italic"
    font-stretch="normal"
    units-per-em="1000"
    panose-1="2 0 5 3 0 0 0 0 0 0"
    ascent="800"
    descent="-200"
    x-height="530.999"
    cap-height="732"
    bbox="-13 -272.735 1082 860.002"
    underline-thickness="50"
    underline-position="-100"
    unicode-range="U+000D-U+007E"
  />
<missing-glyph horiz-adv-x="758" 
d="M100 0v531h558v-531h-558zM114 22l256 244l-256 241v-485zM124 518l257 -242l254 242h-511zM127 13h507l-253 243zM392 266l252 -241v481z" />
    <glyph glyph-name="fi" unicode="fi" horiz-adv-x="579" 
d="M60 457l9.00098 57l102 17l8 53c10 64 35 113.667 75 149s91 53 153 53c51.333 0 112.666 -11.333 183.999 -34l-8 -49l-170 11c-36 2.66699 -69.667 -6 -101 -26s-51 -54.667 -59 -104l-8 -53l358 -10l-82 -521h-75l72 457h-287l-72 -457h-74l72 457h-97z" />
    <glyph glyph-name="fl" unicode="fl" horiz-adv-x="690" 
d="M92 457l8.99805 55l104 19l6 36c12 76.667 35.5 132 70.5 166s82.5 51 142.5 51h266l-94 -595c-3.33301 -19.333 -5.16602 -35.666 -5.49902 -48.999s0.166992 -23.833 1.5 -31.5s4.5 -13.834 9.5 -18.501s9.83301 -8 14.5 -10s11.667 -4 21 -6
c49.333 -12 74.333 -18 75 -18l-9 -56h-68c-95.333 0 -133 63 -113 189l83 523h-185c-37.333 0 -67.166 -10.667 -89.499 -32s-37.5 -59 -45.5 -113l-6 -36h165l-12 -74h-166l-76 -457h-74l75 457h-99z" />
    <glyph glyph-name=".notdef" horiz-adv-x="758" 
d="M100 0v531h558v-531h-558zM114 22l256 244l-256 241v-485zM124 518l257 -242l254 242h-511zM127 13h507l-253 243zM392 266l252 -241v481z" />
    <glyph glyph-name=".notdef" horiz-adv-x="758" 
d="M100 0v531h558v-531h-558zM114 22l256 244l-256 241v-485zM124 518l257 -242l254 242h-511zM127 13h507l-253 243zM392 266l252 -241v481z" />
    <glyph glyph-name="uni000D" unicode="&#xd;" horiz-adv-x="1000" 
 />
    <glyph glyph-name="space" unicode=" " horiz-adv-x="250" 
 />
    <glyph glyph-name="exclam" unicode="!" horiz-adv-x="265" 
d="M85 23l9.00098 57c2 16.667 11.333 25 28 25h55c15.333 0 21.666 -8.33301 18.999 -25l-9 -57c-2 -15.333 -10.667 -23 -26 -23h-55c-16 0 -23 7.66699 -21 23zM122.001 200l77 531h89l-91 -531h-75z" />
    <glyph glyph-name="quotedbl" unicode="&#x22;" horiz-adv-x="381" 
d="M180 531l10 134l11 67h75l-11 -67l-31 -134h-54zM315 531l10 134l11 67h75l-11 -67l-31 -134h-54z" />
    <glyph glyph-name="numbersign" unicode="#" horiz-adv-x="687" 
d="M56 232l16 52h159l52 165h-159l18 52h158l73 231h52l-73 -231h166l72 231h52l-72 -231h177l-18 -52h-177l-52 -166h177l-16 -52h-177l-74 -231h-52l74 231l-166 1l-74 -232h-52l74 232h-158zM283 284l165 -1l52 166h-165z" />
    <glyph glyph-name="dollar" unicode="$" horiz-adv-x="574" 
d="M80 17l10.002 52.998c8.66699 0 41.667 -1 99 -3s103.666 -3 138.999 -3c12 0 24.667 1.33301 38 4s27.666 7 42.999 13s28.666 15.5 39.999 28.5s18.333 28.5 21 46.5l11 68c2.66699 19.333 4.5 36.333 5.5 51s-4.16699 26.167 -15.5 34.5s-30.666 12.5 -57.999 12.5
h-130c-62.667 0 -105.334 17 -128.001 51s-30 74.333 -22 121l10 66c11.333 66 35.333 111.833 72 137.5s85 39.167 145 40.5l14 86h58l-14 -89c24.667 -2 60.834 -5.83301 108.501 -11.5s73.834 -8.83398 78.501 -9.50098l-9 -58l-238 9
c-82 3.33301 -129 -31.667 -141 -105l-10 -66c-5.33301 -35.333 -1.83301 -60.5 10.5 -75.5s38.166 -22.5 77.499 -22.5h130c32.667 0 59.334 -5.16699 80.001 -15.5s34.5 -23.666 41.5 -39.999s11.333 -34.666 13 -54.999s0.166992 -40.833 -4.5 -61.5l-11 -68
c-6.66699 -43.333 -23.334 -78.166 -50.001 -104.499s-56 -43.333 -88 -51s-67.333 -10.5 -106 -8.5l-13 -82h-58l14 87c-18 2 -38.5 4.5 -61.5 7.5s-44.333 5.66699 -64 8z" />
    <glyph glyph-name="percent" unicode="%" horiz-adv-x="962" 
d="M115 474l21 133c7.33301 45.333 20.833 77.5 40.5 96.5s55.834 28.5 108.501 28.5h101c44 0 74.5 -9.66699 91.5 -29s22.167 -51.333 15.5 -96l-21 -133c-8 -48 -22 -80.833 -42 -98.5s-55.333 -26.5 -106 -26.5h-101c-38.667 0 -67.834 10.667 -87.501 32
s-26.5 52.333 -20.5 93zM180 474c-4 -24 -2.16699 -40 5.5 -48s23.5 -12 47.5 -12h101c26.667 0 44.5 3.83301 53.5 11.5s15.5 23.834 19.5 48.501l21 133c4 25.333 3.16699 41.666 -2.5 48.999s-22.167 11 -49.5 11h-101c-28 0 -46.333 -4 -55 -12s-15 -24 -19 -48zM225 0
l554 732h71l-554 -732h-71zM583 125l20.999 133c7.33301 45.333 20.833 77.5 40.5 96.5s55.834 28.5 108.501 28.5h101c44 0 74.5 -9.66699 91.5 -29s22.167 -51.333 15.5 -96l-21 -133c-8 -47.333 -22.167 -80 -42.5 -98s-55.833 -27 -106.5 -27h-101
c-38.667 0 -67.667 10.667 -87 32s-26 52.333 -20 93zM647.999 125c-4 -24 -2.33301 -40 5 -48s23 -12 47 -12h101c26.667 0 44.667 3.83301 54 11.5s16 23.834 20 48.501l21 133c4 25.333 3 41.666 -3 48.999s-22.667 11 -50 11h-101c-27.333 0 -45.333 -4 -54 -12
s-15 -24 -19 -48z" />
    <glyph glyph-name="ampersand" unicode="&#x26;" horiz-adv-x="626" 
d="M94 79c-30.667 49.333 -38.835 99.5 -24.502 150.5s47.833 96.5 100.5 136.5l95 73l-49 85c-21.333 38 -28.166 71.667 -20.499 101s23.167 53 46.5 71s49.333 28.333 78 31c90.667 8 178.334 2.33301 263.001 -17l-8 -48h-203c-106.667 0 -136.667 -40.667 -90 -122
l187 -324l133 120l24 -20l-71 -118l-48 -46l90 -152h-76l-65 111l-74 -67c-26 -23.333 -57 -38.5 -93 -45.5s-72 -3.83301 -108 9.5s-65 37 -87 71zM154.999 116c20.667 -30 48.832 -46.999 84.499 -50.999s67.834 6.66699 96.501 32l84 75l-120 202l-86 -66
c-42.667 -32 -68.5 -65.333 -77.5 -100s-2.83301 -65.334 18.5 -92.001z" />
    <glyph glyph-name="quotesingle" unicode="'" horiz-adv-x="186" 
d="M150 531l10 134l11 67h75l-11 -67l-31 -134h-54z" />
    <glyph glyph-name="parenleft" unicode="(" horiz-adv-x="335" 
d="M127 326c10 56.667 24.832 113.833 44.499 171.5s40.167 107.334 61.5 149.001s42 79.167 62 112.5s36.333 58.333 49 75l20 26h88c-5.33301 -6 -12.5 -14.833 -21.5 -26.5s-25.5 -36.334 -49.5 -74.001s-46.333 -76 -67 -115s-42 -87.667 -64 -146
s-38.333 -115.833 -49 -172.5c-11.333 -64 -16.333 -123.333 -15 -178s7 -104 17 -148s20.833 -81.667 32.5 -113s22.5 -55.333 32.5 -72l14 -25h-81c-2 3.33301 -4.5 8 -7.5 14s-8.5 18.833 -16.5 38.5s-15.333 40.167 -22 61.5s-13.667 48.5 -21 81.5
s-12.666 66.167 -15.999 99.5s-4.5 71.333 -3.5 114s5.16699 85 12.5 127z" />
    <glyph glyph-name="parenright" unicode=")" horiz-adv-x="337" 
d="M-13 -210c5.33301 6 12.501 14.834 21.501 26.501s25.5 36.334 49.5 74.001s46.333 76 67 115s42 87.667 64 146s38.333 115.833 49 172.5c11.333 64 16.333 123.333 15 178s-7 104 -17 148s-20.833 81.667 -32.5 113s-22.167 55.333 -31.5 72l-15 25h81
c2 -3.33301 4.5 -8 7.5 -14s8.5 -18.833 16.5 -38.5s15.333 -40.167 22 -61.5s13.667 -48.5 21 -81.5s12.666 -66.167 15.999 -99.5s4.5 -71.333 3.5 -114s-5.16699 -85 -12.5 -127c-10 -56.667 -24.833 -113.834 -44.5 -171.501s-40.167 -107.334 -61.5 -149.001
s-42 -79.167 -62 -112.5s-36.667 -58.333 -50 -75l-19 -26h-88z" />
    <glyph glyph-name="asterisk" unicode="*" horiz-adv-x="440" 
d="M139 566l6 40l144 29l-7 -74zM183 414l45 135l70 -17l-80 -130zM283 476l51 62l95 -91l-26 -32zM289 717l41 16l57 -118l-73 -31zM341 571l132 76l13 -35l-106 -97z" />
    <glyph glyph-name="plus" unicode="+" horiz-adv-x="516" 
d="M100 319l12 74h170l27 171h74l-27 -171h172l-12 -74h-172l-27 -171h-74l27 171h-170z" />
    <glyph glyph-name="comma" unicode="," horiz-adv-x="268" 
d="M76 -88l5.00098 32.001c20 -0.666992 32 9.66602 36 30.999l4 25h-11c-16.667 -0 -23.667 8.33301 -21 25l8 54c3.33301 18 13.333 27 30 27h51c15.333 0 21.666 -9 18.999 -27l-14 -90c-2.66699 -18 -8.16699 -32.833 -16.5 -44.5s-17.5 -19.667 -27.5 -24
s-19.833 -7.33301 -29.5 -9s-17.5 -2.16699 -23.5 -1.5z" />
    <glyph glyph-name="hyphen" unicode="-" horiz-adv-x="355" 
d="M60 253l12 74h314l-12 -74h-314z" />
    <glyph glyph-name="period" unicode="." horiz-adv-x="271" 
d="M88 23l9 57c2 16.667 11.333 25 28 25h53c17.333 0 24.333 -8.33301 21 -25l-9 -57c-2.66699 -15.333 -12 -23 -28 -23h-53c-16 0 -23 7.66699 -21 23z" />
    <glyph glyph-name="slash" unicode="/" horiz-adv-x="400" 
d="M8 -72l414 842h79l-414 -842h-79z" />
    <glyph glyph-name="zero" unicode="0" horiz-adv-x="642" 
d="M95 162l64.999 408.001c16.667 108 82.334 162 197.001 162h164c56 0 95.5 -15.833 118.5 -47.5s30.833 -69.834 23.5 -114.501l-65 -408c-9.33301 -58 -29.833 -99.5 -61.5 -124.5s-75.5 -37.5 -131.5 -37.5h-164c-50 0 -89 13 -117 39s-37.667 67 -29 123z
M168.999 162.001c-3.33301 -20.667 -3.66699 -37.5 -1 -50.5s9 -22 19 -27s18.833 -8 26.5 -9s19.5 -1.5 35.5 -1.5h4h164c61.333 0 97 29.333 107 88l65 408c4.66699 30 1.5 52.167 -9.5 66.5s-34.167 21.5 -69.5 21.5h-164c-66 0 -103.333 -29.333 -112 -88z" />
    <glyph glyph-name="one" unicode="1" horiz-adv-x="361" 
d="M134 594l8.00195 53c29.333 0 59.166 7.16699 89.499 21.5s53.166 28.5 68.499 42.5l24 21h72l-114 -732h-74l102 637c-14 -10.667 -36.167 -20.5 -66.5 -29.5s-66.833 -13.5 -109.5 -13.5z" />
    <glyph glyph-name="two" unicode="2" horiz-adv-x="595" 
d="M47 0l11.001 68.001l136 88c43.333 29.333 94.166 66.666 152.499 111.999s106.5 91.333 144.5 138s60 89.334 66 128.001c13.333 88.667 -23 133 -109 133h-303l9 55c106.667 13.333 209.334 20 308.001 20c63.333 0 108.666 -20.333 135.999 -61
s38.333 -90.334 33 -149.001c-3.33301 -35.333 -17.5 -73.5 -42.5 -114.5s-53.333 -78 -85 -111s-68.5 -66.667 -110.5 -101s-76.167 -60.833 -102.5 -79.5l-76.5 -52h340l-12 -74h-495z" />
    <glyph glyph-name="three" unicode="3" horiz-adv-x="594" 
d="M49 21l8 47.002h298c28 0 54.167 7.83301 78.5 23.5s39.166 38.834 44.499 69.501l10 59c4 14 5 26.333 3 37s-3.16699 19.667 -3.5 27s-3.5 13.666 -9.5 18.999s-10.833 9.33301 -14.5 12s-9.66699 4.83398 -18 6.50098s-15.333 2.66699 -21 3
s-13.167 0.833008 -22.5 1.5l-242 7l10 58l244 10c70 3.33301 110 36.333 120 99l11 69c9.33301 60.667 -20.667 91 -90 91h-311l7 46c29.333 10 62.5 17.167 99.5 21.5s73.167 6.66602 108.5 6.99902s73.666 0.166016 114.999 -0.500977
c48.667 -1.33301 86.834 -17.333 114.501 -48s37.834 -69.667 30.501 -117l-11 -69c-12.667 -78 -42 -123.333 -88 -136c40.667 -23.333 55.334 -71.333 44.001 -144l-10 -59c-17.333 -112 -85.333 -168 -204 -168h-37h-38.5c-5 0 -16.333 0.166992 -34 0.5
s-29.834 0.666016 -36.501 0.999023s-17.334 1 -32.001 2s-26 2.16699 -34 3.5l-29.5 5c-11.667 2 -22.167 4.33301 -31.5 7s-18.666 5.66699 -27.999 9z" />
    <glyph glyph-name="four" unicode="4" 
d="M55 224l401 508h93l-368 -467h276l33 207l52 75h37l-45 -282h90l-9 -59l-93 -19l-29 -185h-77l29 185h-362z" />
    <glyph glyph-name="five" unicode="5" 
d="M79 19l9 55.002h304c31.333 0 55.333 9.5 72 28.5s27 40.5 31 64.5l17 106c11.333 66 -13 99 -73 99h-151c-22 0 -42.333 -6.33301 -61 -19s-30 -31.334 -34 -56.001h-69l91 435h423l-12 -74h-352l-51 -242c16 17.333 45.667 27.666 89 30.999c22 1.33301 39.5 2 52.5 2
s29 -0.5 48 -1.5s31.5 -1.5 37.5 -1.5c46 0 82 -16.167 108 -48.5s35.333 -73.166 28 -122.499l-17 -110c-10 -63.333 -31.167 -107.333 -63.5 -132s-74.5 -37.334 -126.5 -38.001c-65.333 -0.666992 -116 0.333008 -152 3s-85.333 9.66699 -148 21z" />
    <glyph glyph-name="six" unicode="6" horiz-adv-x="621" 
d="M124 384c19.333 122 50.333 211.498 93 268.498s87.667 85.5 135 85.5c116.667 0 216.334 -6.33301 299.001 -19l-9 -55h-289c-20 0 -39 -9.16699 -57 -27.5s-33.167 -41.833 -45.5 -70.5s-22.333 -56.167 -30 -82.5s-13.834 -51.833 -18.501 -76.5
c114.667 13.333 203.334 20.333 266.001 21c26 0.666992 48.333 -2.33301 67 -9s32.667 -15.5 42 -26.5s16.833 -23.167 22.5 -36.5s8.16699 -26.666 7.5 -39.999s-1.33398 -25.666 -2.00098 -36.999l-20 -131c-16 -98.667 -77.667 -148 -185 -148h-147
c-126.667 0 -169.667 128 -129 384zM193 353.998c-30 -188.667 -7.33594 -282.999 67.9971 -282.999h149c22.667 0 44.334 6 65.001 18s33.334 33.667 38.001 65l19 125c4.66699 29.333 1.33398 49.166 -9.99902 59.499s-33.333 15.5 -66 15.5h-263z" />
    <glyph glyph-name="seven" unicode="7" horiz-adv-x="546" 
d="M134 658l12 74h459l19 -48l-373 -684h-88l362 658h-391z" />
    <glyph glyph-name="eight" unicode="8" horiz-adv-x="632" 
d="M109 154l15.0029 97.9971c5.33301 34.667 18.666 61.334 39.999 80.001s45.333 29.334 72 32.001c-20.667 6.66699 -37.167 18 -49.5 34s-20 32.5 -23 49.5s-3.16699 34.167 -0.5 51.5l11 65c10 64.667 31.333 109.667 64 135s79 38 139 38h146
c50 0 87.167 -15.167 111.5 -45.5s32.166 -72.833 23.499 -127.5l-11 -65c-0.666992 -10.667 -3.66699 -23.167 -9 -37.5s-15.833 -30.166 -31.5 -47.499s-34.834 -28.333 -57.501 -33c24.667 -8 41.834 -25.167 51.501 -51.5s12.167 -52.166 7.5 -77.499l-15 -98
c-5.33301 -34 -14.333 -61.833 -27 -83.5s-28.5 -37.334 -47.5 -47.001s-36.833 -16 -53.5 -19s-36.667 -4.5 -60 -4.5h-145c-32 -0 -58.833 4.33301 -80.5 13s-37.334 18.667 -47.001 30s-16.667 25 -21 41s-6.33301 29 -6 39s1.5 20.333 3.5 31zM182.003 150.997
c-4.66699 -28.667 -0.166016 -48.668 13.501 -60.001s39.167 -17 76.5 -17h145c24 0 45.833 6 65.5 18s31.5 31.667 35.5 59l17 105c4 26.667 -1.16699 46.834 -15.5 60.501s-33.5 20.5 -57.5 20.5h-159c-60.667 0 -95.334 -27 -104.001 -81zM236.004 493.996
c-4.66699 -30 1.5 -51.5 18.5 -64.5s36.833 -19.5 59.5 -19.5h159c56.667 0 89.667 28 99 84l11 68c6.66699 39.333 4.5 66 -6.5 80s-32.833 21 -65.5 21h-146c-40 0 -68.167 -7.66699 -84.5 -23s-27.5 -41.333 -33.5 -78z" />
    <glyph glyph-name="nine" unicode="9" horiz-adv-x="620" 
d="M86 19l9 55.002h289c20 0 39 9.16699 57 27.5s33.167 41.833 45.5 70.5s22.333 56.167 30 82.5s13.834 51.833 18.501 76.5c-114.667 -13.333 -203.334 -20.333 -266.001 -21c-26 -0.666992 -48.333 2.33301 -67 9s-32.667 15.5 -42 26.5s-16.833 23.167 -22.5 36.5
s-8.16699 26.666 -7.5 39.999s1.33398 25.666 2.00098 36.999l20 131c16 98.667 77.667 148 185 148h147c126.667 0 169.667 -128 129 -384c-19.333 -122 -50.333 -211.5 -93 -268.5s-87.667 -85.5 -135 -85.5c-132.667 -0 -232.334 6.33301 -299.001 19zM205 459.002
c-4.66699 -29.333 -1.33105 -49.167 10.002 -59.5s33.333 -15.5 66 -15.5h263c30 188.667 7.33301 283 -68 283h-149c-22.667 0 -44.334 -6 -65.001 -18s-33.334 -33.667 -38.001 -65z" />
    <glyph glyph-name="colon" unicode=":" horiz-adv-x="272" 
d="M88 23l9 57c2 16.667 11.333 25 28 25h53c17.333 0 24.333 -8.33301 21 -25l-9 -57c-2.66699 -15.333 -12 -23 -28 -23h-53c-16 0 -23 7.66699 -21 23zM156 450l9.00098 57c2 16.667 11.333 25 28 25h53c17.333 0 24.333 -8.33301 21 -25l-9 -57
c-2.66699 -15.333 -12.334 -23 -29.001 -23h-53c-15.333 0 -22 7.66699 -20 23z" />
    <glyph glyph-name="semicolon" unicode=";" horiz-adv-x="272" 
d="M76 -88l5.00098 32.002c20 -0.666992 32 9.66602 36 30.999l4 25h-11c-6.66699 0 -12.167 2.66699 -16.5 8s-5.83301 11 -4.5 17l8 54c1.33301 7.33301 4.83301 13.666 10.5 18.999s12.167 8 19.5 8h51c15.333 0 21.666 -9 18.999 -27l-14 -90
c-2.66699 -18 -8.16699 -32.833 -16.5 -44.5s-17.5 -19.667 -27.5 -24s-19.833 -7.33301 -29.5 -9s-17.5 -2.16699 -23.5 -1.5zM158.001 451.002l9 57c2 16.667 11.333 25 28 25h53c17.333 0 24.333 -8.33301 21 -25l-9 -57c-2.66699 -15.333 -12 -23 -28 -23h-53
c-16 0 -23 7.66699 -21 23z" />
    <glyph glyph-name="less" unicode="&#x3c;" horiz-adv-x="474" 
d="M99 314l13 80l400 162l-12 -80l-310 -126l269 -135l-13 -75z" />
    <glyph glyph-name="equal" unicode="=" horiz-adv-x="467" 
d="M53 212l13 74h427l-13 -74h-427zM85 421l13 74h427l-13 -74h-427z" />
    <glyph glyph-name="greater" unicode="&#x3e;" horiz-adv-x="475" 
d="M72 140l13 82l316 132l-276 132l13 70l349 -162l-12 -80z" />
    <glyph glyph-name="question" unicode="?" horiz-adv-x="540" 
d="M125 668l8.99902 51.001c9.33301 1.33301 25.833 3.5 49.5 6.5s38.834 4.83301 45.501 5.5l44 4.5c22.667 2.33301 37.5 3.5 44.5 3.5s23 0.5 48 1.5s42.833 0.5 53.5 -1.5c64 0 110.5 -17.833 139.5 -53.5s39.167 -79.5 30.5 -131.5l-16 -101
c-20.667 -130 -110 -182.333 -268 -157l-9 -48c-5.33301 -32.667 -7.66602 -50.334 -6.99902 -53.001h-75l25 162c63.333 -1.33301 110.666 -1.33301 141.999 0c28 1.33301 53.5 10 76.5 26s37.167 39.333 42.5 70l16 101c6.66699 42 1 71.5 -17 88.5
s-52.333 25.5 -103 25.5h-271zM174.999 23.001l9 57c2 16.667 11.333 25 28 25h53c17.333 0 24.333 -8.33301 21 -25l-9 -57c-2.66699 -15.333 -12 -23 -28 -23h-53c-16 0 -23 7.66699 -21 23z" />
    <glyph glyph-name="at" unicode="@" horiz-adv-x="868" 
d="M64 9l80.998 512c19.333 118.667 87.666 178 204.999 178h375c54.667 0 93.834 -15.333 117.501 -46s31.167 -74.667 22.5 -132l-53 -354c-2 -14 -4.16699 -25.833 -6.5 -35.5s-7.33301 -23.5 -15 -41.5s-17 -32.5 -28 -43.5s-26.833 -21 -47.5 -30
s-44.667 -13.5 -72 -13.5h-54l-23 60c-40 -44 -92 -66.333 -156 -67c-62 -1.33301 -106.833 18.334 -134.5 59.001s-33.5 114 -17.5 220c8 52.667 20.333 97.667 37 135s35.5 65.166 56.5 83.499s41.333 31.333 61 39s39.834 11.5 60.501 11.5
c108 0 183.667 -20.667 227 -62l-59 -405c28 0 49.667 5.66699 65 17s26 35.666 32 72.999l53 354c2 14.667 3 27.5 3 38.5s-0.666992 20.167 -2 27.5s-4.16602 13.333 -8.49902 18s-8 8.33398 -11 11.001s-8 4.66699 -15 6s-12.167 2 -15.5 2h-17h-5h-382
c-68 0 -107.667 -34.333 -119 -103l-81 -512c-12 -76 16.333 -114 85 -114h386l-8 -47c-90 -18 -187.333 -27 -292 -27h-98c-51.333 0 -90.833 17.833 -118.5 53.5s-37.167 80.5 -28.5 134.5zM328.998 254c-8.66699 -71.333 -7.16699 -119.667 4.5 -145
s37.167 -38.333 76.5 -39c28.667 -0.666992 55 3.33301 79 12s51.667 24.667 83 48l51 325c-40 10.667 -89.667 16 -149 16c-78.667 0 -127 -72.333 -145 -217z" />
    <glyph glyph-name="A" unicode="A" horiz-adv-x="660" 
d="M45 0l385 732h74l141 -732h-75l-39 204h-297l-108 -204h-81zM273 278h244l-63 350z" />
    <glyph glyph-name="B" unicode="B" horiz-adv-x="597" 
d="M80 0l116.003 731.998h283c34.667 0 64 -6 88 -18s41.167 -27.833 51.5 -47.5s17.166 -40 20.499 -61s3.66602 -43.167 0.999023 -66.5c-10.667 -86.667 -50.334 -139.667 -119.001 -159c18.667 -3.33301 36.334 -21.166 53.001 -53.499s22 -74.166 16 -125.499
c-16.667 -134 -92.334 -201 -227.001 -201h-283zM167.003 73.998h208c79.333 0 126 44 140 132c6.66699 40 2 73.5 -14 100.5s-43.667 40.5 -83 40.5h-208zM222.003 420.998h208c77.333 0 122.333 40.333 135 121c6.66699 44.667 1.5 75.167 -15.5 91.5
s-43.833 24.5 -80.5 24.5h-209z" />
    <glyph glyph-name="C" unicode="C" horiz-adv-x="578" 
d="M115 368c10.667 62.667 22.666 115.334 35.999 158.001s31.333 81 54 115s51.334 59 86.001 75s76.334 24 125.001 24c55.333 0 135.333 -10 240 -30l-9 -59c-84.667 11.333 -164.667 16.333 -240 15c-12.667 0 -21.834 -0.166992 -27.501 -0.5s-16 -2.33301 -31 -6
s-27 -9 -36 -16s-20.5 -17.833 -34.5 -32.5s-25.667 -32.167 -35 -52.5s-19 -47 -29 -80s-18.333 -70.5 -25 -112.5c-8.66699 -55.333 -11.5 -104.5 -8.5 -147.5s15.167 -78.167 36.5 -105.5s51 -42.333 89 -45c47.333 -3.33301 131.666 -0.666016 252.999 8.00098l-8 -59
c-56.667 -15.333 -139.667 -23 -249 -23c-36.667 0 -68.167 7.66699 -94.5 23s-46.666 35.166 -60.999 59.499s-25 53.166 -32 86.499s-10.167 66.833 -9.5 100.5s4 68.5 10 104.5z" />
    <glyph glyph-name="D" unicode="D" horiz-adv-x="668" 
d="M80 0l116 731c0 0.666992 91 1 273 1c42.667 0 79 -9 109 -27s52 -40.333 66 -67s23.833 -57.5 29.5 -92.5s8 -67.167 7 -96.5s-4.16699 -58 -9.5 -86c-42 -242 -148 -363 -318 -363h-273zM166 77l199 -0.000976562c61.333 0 112 27.5 152 82.5s66.667 123.167 80 204.5
c16 100.667 12.5 174.834 -10.5 222.501s-66.167 71.5 -129.5 71.5h-199z" />
    <glyph glyph-name="E" unicode="E" horiz-adv-x="567" 
d="M98 123l76.001 479.004c14.667 91.333 63.667 134.666 147 129.999l314 -16l-9 -58h-317c-14.667 0 -26.667 -3 -36 -9s-15.5 -12.667 -18.5 -20s-5.16699 -16.333 -6.5 -27l-32 -200l328 -10l-10 -59l-330 -10l-32 -200c-1.33301 -12.667 -1 -22.834 1 -30.501
s6.5 -12.834 13.5 -15.501s13 -4.33398 18 -5.00098s12.5 -1 22.5 -1h307l-10 -57l-310 -17c-36.667 -2 -66.834 7.5 -90.501 28.5s-32.167 53.5 -25.5 97.5z" />
    <glyph glyph-name="F" unicode="F" horiz-adv-x="568" 
d="M80 0l95 602.001c14.667 91.333 63.667 134.666 147 129.999l314 -16l-9 -58h-317c-14.667 0 -26.667 -3 -36 -9s-15.5 -12.667 -18.5 -20s-5.16699 -16.333 -6.5 -27l-31 -200l327 -10l-9 -59l-331 -10l-51 -323h-74z" />
    <glyph glyph-name="G" unicode="G" horiz-adv-x="609" 
d="M117 367c10.667 62.667 22.6729 115.33 36.0059 157.997s31.5 81 54.5 115s51.833 59 86.5 75s76.334 24 125.001 24c48 0.666992 125 -9 231 -29l-8 -59c-46.667 6.66699 -124 11.334 -232 14.001c-6.66699 -0.666992 -13.834 -0.666992 -21.501 0
s-15.834 -0.166016 -24.501 -2.49902l-26.5 -7c-9 -2.33301 -18.167 -7.16602 -27.5 -14.499s-18.333 -15.666 -27 -24.999s-17.334 -21.833 -26.001 -37.5s-16.834 -33.167 -24.501 -52.5s-14.834 -42.833 -21.501 -70.5s-12.334 -57.834 -17.001 -90.501
c-14 -87.333 -11.5 -159 7.5 -215s56.167 -83.667 111.5 -83c23.333 0 51.166 4.5 83.499 13.5s58.833 18.167 79.5 27.5l31 14l34 192h-169l8 50c63.333 16.667 123 25 179 25c20.667 0 43 -1 67 -3l-61 -386h-57l-10 57c-17.333 -16 -44.833 -30.667 -82.5 -44
s-74.5 -20 -110.5 -20s-67.167 7.66699 -93.5 23s-46.833 35.333 -61.5 60s-25.5 53.5 -32.5 86.5s-10.333 66.5 -10 100.5s3.5 68.667 9.5 104z" />
    <glyph glyph-name="H" unicode="H" horiz-adv-x="644" 
d="M85 0l116 732h74l-55 -341h350l55 341h74l-116 -732h-74l51 317h-350l-51 -317h-74z" />
    <glyph glyph-name="I" unicode="I" horiz-adv-x="225" 
d="M90 0l116 732h74l-116 -732h-74z" />
    <glyph glyph-name="J" unicode="J" horiz-adv-x="360" 
d="M38 21l12.999 54.001c16 -4 28.833 -7 38.5 -9s22.834 -3.83301 39.501 -5.5s30.5 -0.833984 41.5 2.49902s22.5 8.33301 34.5 15s21.833 17.5 29.5 32.5s13.167 33.167 16.5 54.5l90 567h74l-90 -567c-11.333 -75.333 -36.333 -124.333 -75 -147
c-29.333 -16.667 -66 -24.667 -110 -24s-78 9.66699 -102 27z" />
    <glyph glyph-name="K" unicode="K" horiz-adv-x="572" 
d="M80 0l116 732h74l-52 -328h87l275 328h92l-304 -370l188 -362h-89l-169 330h-91l-52 -330h-75z" />
    <glyph glyph-name="L" unicode="L" horiz-adv-x="535" 
d="M99 126l98 606.004h73l-97 -606c-2 -12.667 -1.83301 -22.834 0.5 -30.501s7 -12.834 14 -15.501s13 -4.33398 18 -5.00098s12.5 -1 22.5 -1h306l-11 -74h-308c-38 0 -68.5 10.167 -91.5 30.5s-31.167 52.166 -24.5 95.499z" />
    <glyph glyph-name="M" unicode="M" horiz-adv-x="802" 
d="M71 0l164 732h96l102 -609l288 609h101l-60 -732h-74l52 599l-285 -599h-76l-99 598l-135 -598h-74z" />
    <glyph glyph-name="N" unicode="N" horiz-adv-x="660" 
d="M80 0l116 732h72l279 -594l94 594h74l-116 -732h-70l-280 594l-94 -594h-75z" />
    <glyph glyph-name="O" unicode="O" horiz-adv-x="667" 
d="M115 361c10.667 67.333 23.8359 124.168 39.5029 170.501s32.334 83 50.001 110s40 47.667 67 62s53.333 23.5 79 27.5s58.167 6 97.5 6c26.667 0 50.167 -1.16699 70.5 -3.5s40.5 -6.83301 60.5 -13.5s36.667 -15.667 50 -27s25.333 -26.333 36 -45
s18.167 -41.167 22.5 -67.5s6.16602 -57.833 5.49902 -94.5s-4.66699 -78.334 -12 -125.001c-8 -53.333 -17.667 -99.666 -29 -138.999s-24.833 -72.333 -40.5 -99s-32 -48.5 -49 -65.5s-37.333 -30 -61 -39s-47 -15 -70 -18s-50.167 -4.5 -81.5 -4.5
c-26 0 -48.333 0.833008 -67 2.5s-38.334 5.5 -59.001 11.5s-37.834 14.167 -51.501 24.5s-26.334 24.666 -38.001 42.999s-20 40.166 -25 65.499s-7.16699 56.333 -6.5 93s4.66699 78.334 12 125.001zM189.002 361.002c-8 -51.333 -12.1729 -94.332 -12.5059 -128.999
s2.5 -62.834 8.5 -84.501s17.167 -38.167 33.5 -49.5s34.5 -18.833 54.5 -22.5s46.333 -5.5 79 -5.5c38.667 0 70.334 3.5 95.001 10.5s48 20.833 70 41.5s40.167 50.334 54.5 89.001s26.166 88.667 35.499 150c5.33301 32.667 8.83301 62.334 10.5 89.001s2.5 50 2.5 70
s-2.16699 37.5 -6.5 52.5s-8.66602 27.5 -12.999 37.5s-11.333 18.5 -21 25.5s-18.167 12.333 -25.5 16s-18.166 6.33398 -32.499 8.00098s-26.166 2.66699 -35.499 3s-22.666 0.5 -39.999 0.5c-24 0 -42.167 -0.333008 -54.5 -1s-27.666 -2.83398 -45.999 -6.50098
s-32.5 -9.33398 -42.5 -17.001s-21.5 -18.667 -34.5 -33s-23.667 -32.333 -32 -54s-16.666 -48.334 -24.999 -80.001s-15.833 -68.5 -22.5 -110.5z" />
    <glyph glyph-name="P" unicode="P" horiz-adv-x="595" 
d="M75 0l115.997 732.001h306c46.667 0 84.5 -16.667 113.5 -50s38.5 -87.333 28.5 -162c-4 -31.333 -10 -59 -18 -83s-16 -43.833 -24 -59.5s-18.333 -28.834 -31 -39.501s-23.5 -18.5 -32.5 -23.5s-21.167 -8.83301 -36.5 -11.5s-26.666 -4.16699 -33.999 -4.5
s-18.666 -0.5 -33.999 -0.5c-19.333 0 -61.666 2.5 -126.999 7.5s-99.333 8.16699 -102 9.5l-51 -315h-74zM207.997 372.001l230.997 -0.00195312c32 0 58.5 9.66699 79.5 29s36.167 59 45.5 119c4 18.667 5.16699 35 3.5 49s-3.16699 25.833 -4.5 35.5
s-4.66602 17.834 -9.99902 24.501s-10.166 11.834 -14.499 15.501s-10.166 6.5 -17.499 8.5s-13.5 3.16699 -18.5 3.5s-10.833 0.5 -17.5 0.5h-232z" />
    <glyph glyph-name="Q" unicode="Q" horiz-adv-x="671" 
d="M119 361c10.667 67.333 23.8359 124.168 39.5029 170.501s32.334 83 50.001 110s40 47.667 67 62s53.333 23.5 79 27.5s58.167 6 97.5 6c26.667 0 50.167 -1.16699 70.5 -3.5s40.5 -6.83301 60.5 -13.5s36.667 -15.667 50 -27s25.333 -26.333 36 -45
s18.167 -41.167 22.5 -67.5s6.16602 -57.833 5.49902 -94.5s-4.66699 -78.334 -12 -125.001c-8 -53.333 -17.667 -99.666 -29 -138.999s-24.833 -72.333 -40.5 -99s-32 -48.5 -49 -65.5s-37.333 -30 -61 -39s-47 -15 -70 -18s-50.167 -4.5 -81.5 -4.5
c-26 0 -48.333 0.833008 -67 2.5s-38.334 5.5 -59.001 11.5s-37.834 14.167 -51.501 24.5s-26.334 24.666 -38.001 42.999s-20 40.166 -25 65.499s-7.16699 56.333 -6.5 93s4.66699 78.334 12 125.001zM193.002 361.002c-8 -51.333 -12.1729 -94.332 -12.5059 -128.999
s2.5 -62.834 8.5 -84.501s17.167 -38.167 33.5 -49.5s34.5 -18.833 54.5 -22.5s46.333 -5.5 79 -5.5c38.667 0 70.334 3.5 95.001 10.5s48 20.833 70 41.5s40.167 50.334 54.5 89.001s26.166 88.667 35.499 150c5.33301 32.667 8.83301 62.334 10.5 89.001s2.5 50 2.5 70
s-2.16699 37.5 -6.5 52.5s-8.66602 27.5 -12.999 37.5s-11.333 18.5 -21 25.5s-18.167 12.333 -25.5 16s-18.166 6.33398 -32.499 8.00098s-26.166 2.66699 -35.499 3s-22.666 0.5 -39.999 0.5c-24 0 -42.167 -0.333008 -54.5 -1s-27.666 -2.83398 -45.999 -6.50098
s-32.5 -9.33398 -42.5 -17.001s-21.5 -18.667 -34.5 -33s-23.667 -32.333 -32 -54s-16.666 -48.334 -24.999 -80.001s-15.833 -68.5 -22.5 -110.5zM308.996 -32.9971l51.998 -0.00195312c26 -20.667 52.833 -32.167 80.5 -34.5s55.834 2.5 84.501 14.5l-13 -80
c-27.333 -7.33301 -56.166 -10.166 -86.499 -8.49902s-57.5 12.334 -81.5 32.001s-36 45.167 -36 76.5z" />
    <glyph glyph-name="R" unicode="R" horiz-adv-x="610" 
d="M75 0l116 732h312c104 0 148.667 -73.333 134 -220c-12.667 -127.333 -65.667 -197.333 -159 -210l106 -302h-81l-99 294l-206 14l-49 -308h-74zM209 372l231.999 -0.000976562c31.333 0 58.333 10.833 81 32.5s36 57.5 40 107.5c3.33301 26 3.83301 47.833 1.5 65.5
s-4.66602 31.834 -6.99902 42.501s-7.33301 18.667 -15 24s-15 8.83301 -22 10.5s-16.5 2.5 -28.5 2.5h-237z" />
    <glyph glyph-name="S" unicode="S" horiz-adv-x="571" 
d="M79 16l9.00098 59.998c48 -6.66699 130.333 -10 247 -10c86 0 133.667 30 143 90l11 68c5.33301 33.333 4 58 -4 74s-29.333 24 -64 24h-139c-118.667 0 -168.667 57.333 -150 172l10 66c6 37.333 16 68.5 30 93.5s31.5 43.5 52.5 55.5s42.833 20.167 65.5 24.5
s48.667 5.83301 78 4.5c74 -2.66699 155.667 -10.667 245 -24l-9 -59l-248 9c-42.667 2 -75 -3.66699 -97 -17s-36.333 -42.333 -43 -87l-10 -66c-2 -14 -3 -26.333 -3 -37s1 -19.334 3 -26.001s4.83301 -12.5 8.5 -17.5s7.83398 -8.5 12.501 -10.5s10 -3.66699 16 -5
s12.333 -2 19 -2h21h11h139c29.333 0 54 -5.16699 74 -15.5s34 -23.666 42 -39.999s13.5 -34.666 16.5 -54.999s2.16699 -40.833 -2.5 -61.5l-11 -68c-4.66699 -29.333 -13.334 -54.5 -26.001 -75.5s-26.334 -37 -41.001 -48s-32.5 -19.667 -53.5 -26
s-39.333 -10.333 -55 -12s-33.5 -2.5 -53.5 -2.5c-34 0 -77.667 2.83301 -131 8.5s-91 10.834 -113 15.501z" />
    <glyph glyph-name="T" unicode="T" horiz-adv-x="579" 
d="M139 658l12 74h508l-12 -74h-220l-104 -658h-74l104 658h-214z" />
    <glyph glyph-name="U" unicode="U" horiz-adv-x="656" 
d="M127 302l67.9971 429.998h75l-68 -430c-6 -47.333 -8.5 -86.166 -7.5 -116.499s8.5 -54.166 22.5 -71.499s30.667 -29.166 50 -35.499s45 -9.5 77 -9.5c66.667 0 117.5 17.167 152.5 51.5s59.167 94.833 72.5 181.5l68 430h75l-68 -430
c-5.33301 -34.667 -11 -63.834 -17 -87.501s-16.167 -50.667 -30.5 -81s-31.666 -54.5 -51.999 -72.5s-48.166 -33.5 -83.499 -46.5s-76.333 -19.5 -123 -19.5c-84.667 0 -145.167 24.333 -181.5 73s-46.166 126.667 -29.499 234z" />
    <glyph glyph-name="V" unicode="V" horiz-adv-x="670" 
d="M150 732h78l116 -613l321 613h85l-385 -732h-74z" />
    <glyph glyph-name="W" unicode="W" horiz-adv-x="1002" 
d="M150 732h75l117 -611l323 611h84l-130 -252l59 -365l323 617h81l-385 -732h-74l-61 374l-197 -374h-74z" />
    <glyph glyph-name="X" unicode="X" horiz-adv-x="601" 
d="M38 0l276 364l-163 368h78l134 -303l229 303h89l-285 -377l157 -355h-78l-128 290l-220 -290h-89z" />
    <glyph glyph-name="Y" unicode="Y" horiz-adv-x="630" 
d="M150 732h78l128 -381l266 381h88l-328 -472l-41 -260h-74l41 260z" />
    <glyph glyph-name="Z" unicode="Z" horiz-adv-x="564" 
d="M35 0l12 74l488 584h-396l12 74h493l-12 -74l-488 -584h396l-12 -74h-493z" />
    <glyph glyph-name="bracketleft" unicode="[" horiz-adv-x="321" 
d="M78 -38l115 726c8 50.667 23 89 45 115s60.667 39 116 39h80l-12 -74h-80c-20.667 0 -37 -5.66699 -49 -17s-20.667 -32.333 -26 -63l-115 -726c-6 -42 -6 -68.833 0 -80.5s21.667 -17.5 47 -17.5h80l-12 -74h-80c-28.667 0 -52 6.33301 -70 19s-29.333 28 -34 46
s-7.66699 36.833 -9 56.5s0 36.5 4 50.5z" />
    <glyph glyph-name="backslash" unicode="\" horiz-adv-x="391" 
d="M141 770h71l148 -842h-71z" />
    <glyph glyph-name="bracketright" unicode="]" horiz-adv-x="322" 
d="M-13 -210l12 74h80c20.667 0 37 5.66699 49 17s20.667 32.333 26 63l115 726c6 42 6 68.833 0 80.5s-21.667 17.5 -47 17.5h-80l12 74h80c28.667 0 52 -6.33301 70 -19s29.333 -28 34 -46s7.66699 -36.833 9 -56.5s0 -36.5 -4 -50.5l-115 -726
c-8 -50.667 -23 -89 -45 -115s-60.667 -39 -116 -39h-80z" />
    <glyph glyph-name="asciicircum" unicode="^" horiz-adv-x="392" 
d="M134 531l138 131h71l83 -131h-69l-52 80l-87 -80h-84z" />
    <glyph glyph-name="underscore" unicode="_" horiz-adv-x="673" 
d="M19 -1l12 74h634l-12 -74h-634z" />
    <glyph glyph-name="grave" unicode="`" horiz-adv-x="254" 
d="M125 664h87l106 -133h-69z" />
    <glyph glyph-name="a" unicode="a" horiz-adv-x="541" 
d="M90 278c8.66699 51.333 20.832 94.834 36.499 130.501s34.167 62.167 55.5 79.5s41.333 29.833 60 37.5s40 12.834 64 15.501c38.667 4.66699 85.167 1.16699 139.5 -10.5s93.5 -28.834 117.5 -51.501l-70 -479h-53l-11 60c-68 -44.667 -130 -67 -186 -67
c-20.667 0 -38.667 1.5 -54 4.5s-30.333 8.16699 -45 15.5s-26.5 18 -35.5 32s-16.333 31.333 -22 52s-8.16699 46.167 -7.5 76.5s4.33398 65.166 11.001 104.499zM160.998 251.001c-10.667 -68 -9.66797 -115.666 2.99902 -142.999s39 -41 79 -41
c34.667 0 65 3.66699 91 11s59.333 19.666 100 36.999l52 337c-71.333 19.333 -128.666 24.666 -171.999 15.999c-16.667 -3.33301 -29.5 -6.33301 -38.5 -9s-20.333 -8.5 -34 -17.5s-24.667 -20.667 -33 -35s-16.833 -34.666 -25.5 -60.999s-16 -57.833 -22 -94.5z" />
    <glyph glyph-name="b" unicode="b" horiz-adv-x="554" 
d="M60 0l124 785h72l-45 -286c70 26.667 135.667 40 197 40c122.667 0 168.667 -92 138 -276c-5.33301 -30.667 -10.333 -56.167 -15 -76.5s-12.667 -44.333 -24 -72s-24 -49.667 -38 -66s-33.167 -30 -57.5 -41s-52.166 -15.5 -83.499 -13.5
c-30.667 2 -65.834 10.5 -105.501 25.5s-66.5 28.167 -80.5 39.5l-29 -59h-53zM151 114c71.333 -30.667 134.332 -45.999 188.999 -45.999c36.667 0 65.334 16.167 86.001 48.5s36 81.166 46 146.499c6 41.333 9.33301 77 10 107s-5.33301 53.333 -18 70
s-33.334 25 -62.001 25c-63.333 0 -129.666 -8.66699 -198.999 -26z" />
    <glyph glyph-name="c" unicode="c" horiz-adv-x="496" 
d="M89 266c10.667 60.667 23.501 110.165 38.501 148.498s32.667 66 53 83s39.5 28 57.5 33s41 7.5 69 7.5c51.333 0 125.666 -9.33301 222.999 -28l-8 -54c-92 5.33301 -167.667 8 -227 8c-14 0 -25.167 -0.833008 -33.5 -2.5s-17.666 -6 -27.999 -13
s-19.166 -17.5 -26.499 -31.5s-14.833 -33.833 -22.5 -59.5s-15.167 -57.5 -22.5 -95.5c-12.667 -71.333 -12.834 -121.666 -0.500977 -150.999s35.833 -44 70.5 -44c27.333 0 60.666 0.833008 99.999 2.5s72 3.5 98 5.5l39 3l-9 -56
c-72.667 -19.333 -149.334 -28.666 -230.001 -27.999c-56 0.666992 -97.667 22.667 -125 66s-32.666 112 -15.999 206z" />
    <glyph glyph-name="d" unicode="d" horiz-adv-x="552" 
d="M89 263c6.66699 40 14.5 74.666 23.5 103.999s21.5 58 37.5 86s37.333 49.333 64 64s58 22 94 22c24.667 0 55.5 -3.66699 92.5 -11s69.5 -17 97.5 -29l46 286h72l-125 -785h-53l-10 59c-20 -13.333 -50 -27.5 -90 -42.5s-75 -22.5 -105 -22.5
c-33.333 0 -61.5 8.33301 -84.5 25s-38.833 38 -47.5 64s-14.5 54.833 -17.5 86.5s-1.16699 62.834 5.5 93.501zM163 262.999c-10.667 -62 -9.66406 -110 3.00293 -144s35.667 -51 69 -51c55.333 0 122.666 15.333 201.999 46l51 325c-63.333 17.333 -127.333 26 -192 26
c-32.667 0 -59.834 -14.5 -81.501 -43.5s-38.834 -81.833 -51.501 -158.5z" />
    <glyph glyph-name="e" unicode="e" horiz-adv-x="525" 
d="M89 278c8.66699 46.667 17.8281 83.8311 27.4951 111.498s23.834 54.167 42.501 79.5s43.834 43.666 75.501 54.999s71.167 17 118.5 17c67.333 0 117.833 -11.667 151.5 -35s46.834 -62.666 39.501 -117.999c-5.33301 -41.333 -21.166 -75.333 -47.499 -102
s-56.5 -44.667 -90.5 -54s-69.333 -15 -106 -17s-67.667 -1.5 -93 1.5s-42.666 6.5 -51.999 10.5c-10.667 -61.333 -10.834 -103.666 -0.500977 -126.999s33.5 -35.333 69.5 -36c64 -5.33301 147 -0.666016 249 14.001l-8 -56c-70.667 -19.333 -154 -29 -250 -29
c-63.333 0 -104.666 23 -123.999 69s-20 118 -2 216zM162.994 280.997l30.9951 -2.5c12.667 -1 35.834 -0.833008 69.501 0.5s63.667 5 90 11s51.333 17.333 75 34s37.5 38 41.5 64c5.33301 33.333 -1.16699 54.833 -19.5 64.5s-52.166 14.5 -101.499 14.5
c-35.333 0 -64.666 -4 -87.999 -12s-41.166 -22.167 -53.499 -42.5s-20.666 -36.833 -24.999 -49.5s-9.5 -34 -15.5 -64c-2 -8 -3.33301 -14 -4 -18z" />
    <glyph glyph-name="f" unicode="f" horiz-adv-x="403" 
d="M92 457l9 55l104 19l6 36c13.333 82 31.5 138.833 54.5 170.5s62.5 47.5 118.5 47.5c28 0 67.667 -8 119 -24l-7 -49h-112c-33.333 0 -56 -9.33301 -68 -28s-22.333 -57.667 -31 -117l-6 -36h165l-12 -74h-166l-76 -457h-74l75 457h-99z" />
    <glyph glyph-name="g" unicode="g" horiz-adv-x="553" 
d="M37 -248l7.99902 49.001h258c24.667 0 46.334 8.16699 65.001 24.5s30.334 39.833 35.001 70.5l21 133c-66 -25.333 -126.333 -38 -181 -38c-50.667 0 -89.334 12.833 -116.001 38.5s-41.167 59.5 -43.5 101.5s0.166992 90 7.5 144
c13.333 83.333 39.333 147.833 78 193.5s86 68.5 142 68.5c31.333 0 64.833 -1.5 100.5 -4.5s70 -6.66699 103 -11s53.167 -6.83301 60.5 -7.5l-98 -618c-9.33301 -58.667 -31.833 -102.334 -67.5 -131.001s-75.167 -41 -118.5 -37zM164.999 268.001
c-0.666992 -2.66699 -1.33301 -7.33008 -2 -13.9971c-2.66699 -16.667 -4.5 -29.834 -5.5 -39.501s-1.83301 -23.334 -2.5 -41.001s0.5 -31.834 3.5 -42.501s7.33301 -21.667 13 -33s14.5 -19.833 26.5 -25.5s26.667 -8.5 44 -8.5c59.333 0 123 8.33301 191 25l60 374h-182
c-24.667 0 -46.667 -7.66699 -66 -23s-34.333 -35 -45 -59s-18.5 -44.667 -23.5 -62s-8.83301 -34.333 -11.5 -51z" />
    <glyph glyph-name="h" unicode="h" horiz-adv-x="544" 
d="M60 0l124 784.001h74l-50 -315c2 1.33301 10 5.66602 24 12.999l26 13.5c3.33301 1.66699 11.166 5.33398 23.499 11.001s21 9.5 26 11.5s13 4.83301 24 8.5s20.333 6.16699 28 7.5s16.5 2.66602 26.5 3.99902s20 2 30 2c50.667 0 88 -16.667 112 -50
s32.333 -73.333 25 -120l-59 -370h-74l59 370c4.66699 32 0.166992 56 -13.5 72s-34.167 24 -61.5 24c-25.333 0 -49.666 -2.66699 -72.999 -8s-42.333 -10.833 -57 -16.5s-39.667 -16.5 -75 -32.5l-65 -409h-74z" />
    <glyph glyph-name="i" unicode="i" horiz-adv-x="195" 
d="M60 0l84 531h74l-84 -531h-74zM146 616l8.00098 54c2 16.667 11.333 25 28 25h50c15.333 0 21.666 -8.33301 18.999 -25l-8 -54c-2 -15.333 -11 -23 -27 -23h-50c-15.333 0 -22 7.66699 -20 23z" />
    <glyph glyph-name="j" unicode="j" horiz-adv-x="217" 
d="M28 -270l127 801h74l-85 -535c-15.333 -103.333 -38 -192 -68 -266h-48zM157 616l9.00098 54c2 16.667 11.333 25 28 25h50c15.333 0 21.666 -8.33301 18.999 -25l-9 -54c-2 -15.333 -11 -23 -27 -23h-50c-15.333 0 -22 7.66699 -20 23z" />
    <glyph glyph-name="k" unicode="k" horiz-adv-x="490" 
d="M60 0l124.001 782.001h74l-74 -466c46.667 14 99.167 44.333 157.5 91s91.166 88 98.499 124h83c-14 -48.667 -46 -96.834 -96 -144.501s-95.667 -80.5 -137 -98.5l201 -288h-90l-186 268l-38 -1l-43 -267h-74z" />
    <glyph glyph-name="l" unicode="l" horiz-adv-x="290" 
d="M89 189l94 594h74l-94 -594c-3.33301 -19.333 -5.16602 -35.666 -5.49902 -48.999s0.166992 -23.833 1.5 -31.5s4.5 -13.834 9.5 -18.501s9.83301 -8 14.5 -10s11.667 -4 21 -6c49.333 -12 74.333 -18 75 -18l-9 -56h-68c-94.667 0 -132.334 63 -113.001 189z" />
    <glyph glyph-name="m" unicode="m" horiz-adv-x="898" 
d="M60 0l84.001 530.998h52l12 -64c4 2 16.167 8.5 36.5 19.5s33.833 18 40.5 21s18 7.66699 34 14s30.833 10.5 44.5 12.5s28.5 3 44.5 3c30 0 57.167 -8.16699 81.5 -24.5s40.166 -36.833 47.499 -61.5c78.667 57.333 156 86 232 86c44 0 79.833 -16.167 107.5 -48.5
s37.5 -73.166 29.5 -122.499l-58 -366h-74l58 366c4.66699 28.667 -0.5 52 -15.5 70s-34.833 27 -59.5 27c-42 0 -77.5 -4 -106.5 -12s-61.833 -22.667 -98.5 -44l-6 -43l-58 -364h-74l58 366c4.66699 28.667 -0.666016 52 -15.999 70s-35.333 27 -60 27
c-8.66699 0 -16.834 -0.166992 -24.501 -0.5s-15.667 -1.16602 -24 -2.49902s-14.833 -2.33301 -19.5 -3s-11.5 -2.5 -20.5 -5.5s-15.167 -4.83301 -18.5 -5.5s-10.5 -3.33398 -21.5 -8.00098l-20 -8.5l-24.5 -11c-14 -6.33301 -22.333 -10.166 -25 -11.499l-64 -407h-74z
" />
    <glyph glyph-name="n" unicode="n" horiz-adv-x="544" 
d="M60 0l84 531.001h52l12 -62c2 1.33301 10 5.66602 24 12.999l26 13.5c3.33301 1.66699 11.166 5.33398 23.499 11.001s21 9.5 26 11.5s13 4.83301 24 8.5s20.333 6.16699 28 7.5s16.5 2.66602 26.5 3.99902s20 2 30 2c50.667 0 88 -16.667 112 -50
s32.333 -73.333 25 -120l-59 -370h-74l59 370c4.66699 32 0 56 -14 72s-34.333 24 -61 24c-25.333 0 -49.666 -2.66699 -72.999 -8s-42.333 -10.833 -57 -16.5s-39.667 -16.5 -75 -32.5l-65 -409h-74z" />
    <glyph glyph-name="o" unicode="o" horiz-adv-x="564" 
d="M89 258c16.667 107.333 44.668 180.5 84.001 219.5s103 58.5 191 58.5c83.333 0 140.333 -22.667 171 -68s38 -115.333 22 -210c-16.667 -100 -43.5 -168.833 -80.5 -206.5s-98.5 -56.5 -184.5 -56.5c-86.667 0 -145.834 20.167 -177.501 60.5
s-40.167 107.833 -25.5 202.5zM163.001 258c-4.66699 -28 -7.33398 -52.5 -8.00098 -73.5s1.33301 -38.333 6 -52s10.334 -24.834 17.001 -33.501s16.334 -15.167 29.001 -19.5s25.334 -7.16602 38.001 -8.49902s28.667 -2 48 -2c30 0 53.5 1.66699 70.5 5
s34.167 11.166 51.5 23.499s31.166 31.5 41.499 57.5s19.166 60.333 26.499 103c14 82.667 11.667 137.334 -7 164.001s-58.667 40 -120 40c-31.333 0 -56 -2 -74 -6s-35.333 -13 -52 -27s-30 -34.5 -40 -61.5s-19 -63.5 -27 -109.5z" />
    <glyph glyph-name="p" unicode="p" horiz-adv-x="559" 
d="M17 -270l133.001 791c74 8.66699 158.333 13 253 13c124 0 174 -93.667 150 -281c-10 -76 -32.833 -138.5 -68.5 -187.5s-84.834 -73.5 -147.501 -73.5c-26.667 0 -59.5 3.16699 -98.5 9.5s-72.167 15.5 -99.5 27.5l-49 -299h-73zM150.001 90
c72.667 -24 136.667 -31.335 192 -22.002c16 2.66699 29.333 6.33398 40 11.001s22.834 13.334 36.501 26.001s25.5 32.167 35.5 58.5s18.333 59.5 25 99.5c21.333 131.333 -5.33398 197 -80.001 197h-187z" />
    <glyph glyph-name="q" unicode="q" horiz-adv-x="553" 
d="M91 268c28.667 179.333 104.332 269 226.999 269c31.333 0 64.333 -1.5 99 -4.5s67.834 -6.66699 99.501 -11s51.167 -6.83301 58.5 -7.5l-124 -784h-74l47 299c-68 -26 -129.333 -39 -184 -39c-48.667 0 -86 12.333 -112 37s-40.5 57.5 -43.5 98.5
s-0.833008 88.5 6.5 142.5zM164.998 268c-10 -73.333 -12.3359 -121.667 -7.00293 -145c8.66699 -39.333 37 -59 85 -59c59.333 0 123 8.33301 191 25l59 374h-187c-23.333 0 -44.166 -6.83301 -62.499 -20.5s-32.666 -31.667 -42.999 -54s-18.166 -43 -23.499 -62
s-9.33301 -38.5 -12 -58.5z" />
    <glyph glyph-name="r" unicode="r" horiz-adv-x="427" 
d="M60 0l83.999 531.001h52l11 -67c4 2 13.167 6.83301 27.5 14.5l29.5 15.5l27 13c12.667 6 22.834 10.167 30.501 12.5l29 8.5c11.667 3.33301 22.834 5.66602 33.501 6.99902s21.667 2 33 2c38.667 0 63 -2.66699 73 -8l-12 -73c-16 4 -40.333 6 -73 6
c-25.333 0 -49.833 -2.66699 -73.5 -8s-42.834 -11 -57.501 -17s-40 -17 -76 -33l-64 -404h-74z" />
    <glyph glyph-name="s" unicode="s" horiz-adv-x="508" 
d="M64 9l9.00391 54.9951h274c4 -0.666992 9.16699 -0.666992 15.5 0s15.333 5.33398 27 14.001s18.834 22 21.501 40l9 54c3.33301 18.667 1.66602 32.5 -5.00098 41.5s-20.667 13.5 -42 13.5h-148c-49.333 0 -84.833 9.83301 -106.5 29.5s-28.834 53.5 -21.501 101.5l8 51
c7.33301 44.667 23.166 77.834 47.499 99.501s61.5 32.5 111.5 32.5c64 0 150.333 -5.33301 259 -16l-9 -57h-261c-14.667 0 -27.167 -2 -37.5 -6s-17.833 -9.5 -22.5 -16.5s-7.83398 -13 -9.50098 -18s-3.16699 -11.167 -4.5 -18.5l-8 -51
c-2.66699 -8.66699 -3.33398 -16 -2.00098 -22s2 -11.167 2 -15.5s1.83301 -7.66602 5.5 -9.99902s6.16699 -4.33301 7.5 -6s4.5 -2.66699 9.5 -3s8.5 -0.666016 10.5 -0.999023s5.66699 -0.333008 11 0s9 0.5 11 0.5h150c42.667 0 74.5 -12 95.5 -36s28.5 -55 22.5 -93
l-9 -63c-4 -26 -11.333 -47.5 -22 -64.5s-23.834 -29.167 -39.501 -36.5s-30 -12.166 -43 -14.499s-28.167 -3.5 -45.5 -3.5c-63.333 0 -153.666 6.33301 -270.999 19z" />
    <glyph glyph-name="t" unicode="t" horiz-adv-x="378" 
d="M92 458l9.00391 56l102 18l41 148h56l-23 -148h155l-12 -74h-155l-42 -269c-2 -25.333 -3.83301 -44.833 -5.5 -58.5s0.166016 -24.5 5.49902 -32.5s10.666 -13.333 15.999 -16s13.666 -5.33398 24.999 -8.00098c49.333 -12 74.333 -18 75 -18l-8 -56h-68
c-48.667 0 -82.334 15.333 -101.001 46s-23 78.334 -13 143.001l42 269h-99z" />
    <glyph glyph-name="u" unicode="u" horiz-adv-x="543" 
d="M76 161l58 369.998h74l-58 -370c-5.33301 -35.333 -1.16602 -60.166 12.501 -74.499s34.5 -21.5 62.5 -21.5c25.333 0 49.666 2.66699 72.999 8s42.333 10.833 57 16.5s39.667 16.5 75 32.5l64 409h74l-84 -531h-52l-12 62c-3.33301 -2 -11.333 -6.33301 -24 -13
s-21.167 -11 -25.5 -13s-12.166 -5.83301 -23.499 -11.5s-19.833 -9.5 -25.5 -11.5l-24.5 -8.5c-10.667 -3.66699 -19.834 -6.16699 -27.501 -7.5s-16.5 -2.66602 -26.5 -3.99902s-20 -2 -30 -2c-51.333 0 -89 16 -113 48s-32 72.667 -24 122z" />
    <glyph glyph-name="v" unicode="v" horiz-adv-x="515" 
d="M94 531h77l104 -440l186 360c13.333 27.333 22 54 26 80h59c10.667 -32 9 -62.667 -5 -92l-229 -439h-93z" />
    <glyph glyph-name="w" unicode="w" horiz-adv-x="798" 
d="M94 531l74.001 0.000976562l101 -435l187 352c13.333 27.333 22 54 26 80h54c10.667 -32 9 -62.667 -5 -92l-29 -65l54 -269l194 349c13.333 27.333 22 54 26 80h55c11.333 -34.667 9.66602 -65.334 -5.00098 -92.001l-247 -439h-73l-58 280l-147 -280h-82z" />
    <glyph glyph-name="x" unicode="x" horiz-adv-x="524" 
d="M24 0l235 268l-151 263h85l117 -204l179 204h95l-235 -272l148 -259h-85l-115 200l-173 -200h-100z" />
    <glyph glyph-name="y" unicode="y" horiz-adv-x="549" 
d="M94 531l76.999 -0.00195312l64 -415c2.66699 -14.667 9.66699 -25.167 21 -31.5s22 -9.16602 32 -8.49902l15 1l193 376c11.333 22.667 19.666 49.334 24.999 80.001h61c10.667 -32 7.66699 -64 -9 -96l-221 -436c-44 -86 -84.333 -150 -121 -192s-81 -68 -133 -78v53
c19.333 12.667 37.333 27.5 54 44.5s32.334 36.5 47.001 58.5s26.334 40.5 35.001 55.5s19 34.167 31 57.5c-8.66699 0 -17.334 1.16699 -26.001 3.5s-19 6.83301 -31 13.5s-22.667 18 -32 34s-15.666 35.667 -18.999 59z" />
    <glyph glyph-name="z" unicode="z" horiz-adv-x="456" 
d="M45 1l9 74l345 382h-295l10 74h396l-10 -74l-339 -382h276l-11 -74h-381z" />
    <glyph glyph-name="braceleft" unicode="{" horiz-adv-x="320" 
d="M67 310l10.999 66.9961h21.5c13 0 21.833 0.333008 26.5 1s11.5 2.33398 20.5 5.00098s15.833 7 20.5 13s7.66699 14 9 24l37 236c20 124 93.333 186 220 186l-12 -74c-77.333 1.33301 -122 -36 -134 -112l-37 -236c-4 -22.667 -15 -41.167 -33 -55.5
s-40 -23.833 -66 -28.5c23.333 -3.33301 41.833 -13.166 55.5 -29.499s18.834 -34.833 15.501 -55.5l-40 -248c-8.66699 -52.667 -4.5 -89.5 12.5 -110.5s44.833 -30.5 83.5 -28.5l-12 -74c-45.333 0 -81.166 11 -107.499 33s-42.833 48.333 -49.5 79s-7 64.334 -1 101.001
l40 244c3.33301 20 -3.83398 35.833 -21.501 47.5s-37.5 16.834 -59.5 15.501z" />
    <glyph glyph-name="bar" unicode="|" horiz-adv-x="245" 
d="M74 -72l133 842h74l-133 -842h-74z" />
    <glyph glyph-name="braceright" unicode="}" horiz-adv-x="315" 
d="M-13 -210l11.999 74.0039c76.667 -1.33301 121 36 133 112l38 236c4 22.667 14.833 41.167 32.5 55.5s39.5 23.833 65.5 28.5c-23.333 3.33301 -41.666 13.166 -54.999 29.499s-18.333 34.833 -15 55.5l40 248c8.66699 52.667 4.5 89.5 -12.5 110.5
s-44.833 30.5 -83.5 28.5l12 74c45.333 0 81.166 -11 107.499 -33s42.833 -48.333 49.5 -79s7 -64.334 1 -101.001l-40 -244c-3.33301 -20 3.83398 -35.833 21.501 -47.5s37.5 -16.834 59.5 -15.501l-11 -67h-21.5c-13 0 -21.833 -0.333008 -26.5 -1
s-11.5 -2.33398 -20.5 -5.00098s-15.833 -7 -20.5 -13s-7.66699 -14 -9 -24l-38 -236c-20 -124 -93 -186 -219 -186z" />
    <glyph glyph-name="asciitilde" unicode="~" horiz-adv-x="438" 
d="M140 572l30.0029 23.498c14.667 11.667 25.334 19.667 32.001 24s16.167 8.83301 28.5 13.5s24.833 7 37.5 7c14.667 0 31.667 -5.83301 51 -17.5s35.666 -17.5 48.999 -17.5c9.33301 0 19.166 1.5 29.499 4.5s18.166 5.83301 23.499 8.5s14 7.5 26 14.5
s19 11.167 21 12.5l15 -42c-2 -1.33301 -10 -8.16602 -24 -20.499s-24.667 -21 -32 -26s-17.666 -10.5 -30.999 -16.5s-26.333 -9 -39 -9c-15.333 0 -33.333 5.83301 -54 17.5s-37.334 17.5 -50.001 17.5c-11.333 0 -22 -1.83301 -32 -5.5s-21.333 -8.66699 -34 -15
s-23.334 -11.166 -32.001 -14.499z" />
    <glyph glyph-name=".null" horiz-adv-x="0" 
 />
    </font>
</defs>
</svg>
