<?xml version="1.0" standalone="no"?>
<!DOCTYPE svg PUBLIC "-//W3C//DTD SVG 1.1//EN" "http://www.w3.org/Graphics/SVG/1.1/DTD/svg11.dtd" >
<svg>
<metadata>
Created by FontForge 20090914 at Fri Jul  1 15:59:18 2016
 By www-data
Copyright (c) 2011 Natanael Gama (exo@ndiscovered.com), with Reserved Font Name "Exo"
</metadata>
<defs>
<font id="Exo-Medium" horiz-adv-x="674" >
  <font-face 
    font-family="Exo"
    font-weight="500"
    font-stretch="normal"
    units-per-em="1000"
    panose-1="2 0 6 3 0 0 0 0 0 0"
    ascent="800"
    descent="-200"
    x-height="530.999"
    cap-height="732"
    bbox="18.998 -270 947 860"
    underline-thickness="50"
    underline-position="-50"
    unicode-range="U+000D-U+007E"
  />
<missing-glyph horiz-adv-x="744" 
d="M637 506l-252 -240l252 -241v481zM120 13h507l-253 243zM107 22l256 244l-256 241v-485zM628 518h-511l257 -242zM93 0v531h558v-531h-558z" />
    <glyph glyph-name="fi" unicode="fi" horiz-adv-x="613" 
d="M19 448v66l94 17v49c0 60 18.5 109.333 55.5 148s85.833 58 146.5 58c24.667 0 58.5 -3.5 101.5 -10.5s76.167 -14.5 99.5 -22.5v-58l-175 10c-16.667 0.666992 -32.5 -0.666016 -47.5 -3.99902s-29.5 -9.33301 -43.5 -18s-25 -21.834 -33 -39.501s-12 -39.167 -12 -64.5
v-48l357 -10v-521h-93v448h-264v-448h-92v448h-94z" />
    <glyph glyph-name="fl" unicode="fl" horiz-adv-x="718" 
d="M19 448v66.001l95 17v51c0 62.667 14.167 112.334 42.5 149.001s71.5 55 129.5 55h277v-591c0 -40.667 3.66699 -67.834 11 -81.501s21.666 -23.834 42.999 -30.501c50.667 -14 78.334 -21 83.001 -21v-62h-96c-47.333 0 -81.333 14.167 -102 42.5
s-31 77.166 -31 146.499v516h-165c-34 0 -59.167 -8.66699 -75.5 -26s-24.5 -49.666 -24.5 -96.999v-51h138v-83h-140v-448h-92v448h-93z" />
    <glyph glyph-name=".notdef" horiz-adv-x="744" 
d="M637 506l-252 -240l252 -241v481zM120 13h507l-253 243zM107 22l256 244l-256 241v-485zM628 518h-511l257 -242zM93 0v531h558v-531h-558z" />
    <glyph glyph-name=".notdef" horiz-adv-x="744" 
d="M637 506l-252 -240l252 -241v481zM120 13h507l-253 243zM107 22l256 244l-256 241v-485zM628 518h-511l257 -242zM93 0v531h558v-531h-558z" />
    <glyph glyph-name="uni000D" unicode="&#xd;" horiz-adv-x="934" 
 />
    <glyph glyph-name="space" unicode=" " horiz-adv-x="250" 
 />
    <glyph glyph-name="exclam" unicode="!" horiz-adv-x="270" 
d="M78 23l-0.000976562 66c0 16.667 8 25 24 25h64c7.33301 0 13 -2.33301 17 -7s6 -10.667 6 -18v-66c0 -15.333 -7.66699 -23 -23 -23h-64c-7.33301 0 -13.166 2.16699 -17.499 6.5s-6.5 9.83301 -6.5 16.5zM81.999 731h103l-9 -535h-86z" />
    <glyph glyph-name="quotedbl" unicode="&#x22;" horiz-adv-x="397" 
d="M79 665v67h92v-67l-10 -134h-70zM227 665v67h91v-67l-10 -134h-70z" />
    <glyph glyph-name="numbersign" unicode="#" horiz-adv-x="696" 
d="M19 226l9 64h158l24 153h-157l10 64h158l37 225h64l-37 -225h154l36 225h64l-36 -225h176l-11 -64h-176l-24 -154h176l-10 -64h-177l-37 -225h-64l37 225l-155 1l-37 -226h-64l37 226h-155zM250 290l154 -1l24 154h-154z" />
    <glyph glyph-name="dollar" unicode="$" horiz-adv-x="573" 
d="M51 492v64.9951c0.666992 34 5.83398 63 15.501 87s23.5 42.667 41.5 56s37.667 22.833 59 28.5s46.333 8.83398 75 9.50098v86h66v-89c44.667 -2.66699 107 -10 187 -22v-72c-14.667 0 -41 0.833008 -79 2.5l-104.5 4.5c-31.667 1.33301 -48.834 2 -51.501 2
c-38.667 1.33301 -67.834 -4.33398 -87.501 -17.001s-29.5 -39 -29.5 -79v-58c0 -60 32.667 -90 98 -90h120c26.667 0 50 -3.66699 70 -11s35.667 -16.666 47 -27.999s20.5 -25.166 27.5 -41.499s11.5 -32.166 13.5 -47.499s3 -32 3 -50v-63c0 -34.667 -6 -64.167 -18 -88.5
s-28.667 -42.5 -50 -54.5s-43.833 -20.333 -67.5 -25s-49.834 -6.33398 -78.501 -5.00098v-82h-66v86c-66.667 6 -122.667 13.333 -168 22v70c4 0 35.5 -1.16699 94.5 -3.5s106.833 -3.5 143.5 -3.5c78.667 0 118 27.667 118 83v60c0 28.667 -5.66699 50.834 -17 66.501
s-31.666 23.5 -60.999 23.5h-120c-29.333 0 -55.166 3.83301 -77.499 11.5s-39.833 17.334 -52.5 29.001s-23 25.834 -31 42.501s-13.333 32.5 -16 47.5s-4 30.833 -4 47.5z" />
    <glyph glyph-name="percent" unicode="%" horiz-adv-x="956" 
d="M39 476v130c0 44 9.66699 76 29 96s53.333 30 102 30h101c47.333 0 80.5 -10 99.5 -30s28.5 -52 28.5 -96v-130c0 -44.667 -9.5 -77 -28.5 -97s-52.833 -30 -101.5 -30h-101c-48 0 -81.5 10 -100.5 30s-28.5 52.333 -28.5 97zM113 480
c0 -22.667 4.16699 -37.833 12.5 -45.5s23.833 -11.5 46.5 -11.5h93c26 0 42.5 4 49.5 12s10.5 23 10.5 45v121c0 22.667 -4 37.834 -12 45.501s-23.333 11.5 -46 11.5h-93c-26 0 -42.667 -3.83301 -50 -11.5s-11 -22.834 -11 -45.501v-121zM222 0.000976562l440 732h79
l-439 -732h-80zM558 129.001v130c0 44 9.5 76 28.5 96s52.833 30 101.5 30h101c48 0 81.5 -10 100.5 -30s28.5 -52 28.5 -96v-130c0 -44.667 -9.5 -77 -28.5 -97s-53.167 -30 -102.5 -30h-101c-47.333 0 -80.5 10.167 -99.5 30.5s-28.5 52.5 -28.5 96.5zM632 133.001
c0 -22 3.99902 -37 11.999 -45s23.333 -12 46 -12h93c26 0 42.667 4 50 12s11 23 11 45v121c0 22.667 -4.16699 37.834 -12.5 45.501s-23.833 11.5 -46.5 11.5h-93c-25.333 0 -41.666 -3.83301 -48.999 -11.5s-11 -22.834 -11 -45.501v-121z" />
    <glyph glyph-name="ampersand" unicode="&#x26;" horiz-adv-x="648" 
d="M75 82c-36 49.333 -49.8311 99.498 -41.498 150.498s34.833 95.833 79.5 134.5l81 69l-60 82c-25.333 36.667 -36 70.334 -32 101.001s16.167 56.167 36.5 76.5s43.166 31.833 68.499 34.5c33.333 5.33301 68.5 6.83301 105.5 4.5s66.167 -5.33301 87.5 -9
s46.666 -8.83398 75.999 -15.501v-64h-192c-29.333 0 -51 -3.5 -65 -10.5s-20 -19.167 -18 -36.5s13.333 -40.333 34 -69l216 -294l117 118l30 -34l-54 -107l-40 -45l122 -168h-108l-79 107l-71 -65c-25.333 -23.333 -56.333 -38.166 -93 -44.499
s-73.5 -2.16602 -110.5 12.501s-66.833 38.667 -89.5 72zM152.002 132.998c12 -16 27.168 -28.668 45.501 -38.001s38.166 -13.166 59.499 -11.499s40 10.167 56 25.5l72 68l-141 188l-71 -60c-63.333 -52 -70.333 -109.333 -21 -172z" />
    <glyph glyph-name="quotesingle" unicode="'" horiz-adv-x="195" 
d="M51 665v67h93v-67l-10 -134h-72z" />
    <glyph glyph-name="parenleft" unicode="(" horiz-adv-x="346" 
d="M70 326c0 54 5.66992 109.167 17.0029 165.5s25 105.5 41 147.5s32 80.333 48 115s29.667 61 41 79l17 27h94c-4.66699 -7.33301 -10.667 -17.333 -18 -30s-20.5 -38.834 -39.5 -78.501s-35.833 -79.5 -50.5 -119.5s-28 -88.167 -40 -144.5s-18 -110.166 -18 -161.499
c0 -56.667 5.66699 -113.667 17 -171s25.166 -107 41.499 -149s32.666 -79.833 48.999 -113.5s30.166 -59.167 41.499 -76.5l17 -26h-94c-4.66699 5.33301 -10.667 13.333 -18 24s-20.5 34 -39.5 70s-35.667 73.333 -50 112s-27.333 88 -39 148s-17.5 120.667 -17.5 182z
" />
    <glyph glyph-name="parenright" unicode=")" horiz-adv-x="346" 
d="M19 -210c4 6.66699 9.83203 15.835 17.499 27.502s21 36.334 40 74.001s35.833 76.167 50.5 115.5s28 88.166 40 146.499s18 115.833 18 172.5c0 51.333 -5.83301 104.833 -17.5 160.5s-25.5 104.667 -41.5 147s-32.167 81.166 -48.5 116.499
s-30.166 62.666 -41.499 81.999l-17 28h94c4.66699 -6.66699 10.667 -16.167 18 -28.5s20.333 -37.833 39 -76.5s35.167 -77.834 49.5 -117.501s27.5 -88 39.5 -145s18 -112.5 18 -166.5c0 -61.333 -5.66699 -121.666 -17 -180.999s-25 -109.5 -41 -150.5
s-32 -77.5 -48 -109.5s-29.667 -56 -41 -72l-17 -23h-94z" />
    <glyph glyph-name="asterisk" unicode="*" horiz-adv-x="436" 
d="M47 566v44l139 28l5 -77zM112 415l24 135l75 -18l-58 -131zM173 718l43 17l73 -120l-71 -31zM203 473l43 65l110 -91l-24 -35zM248 571l120 77l22 -39l-92 -97z" />
    <glyph glyph-name="plus" unicode="+" horiz-adv-x="507" 
d="M46 313v86h164v165h86v-165h166v-86h-166v-165h-86v165h-164z" />
    <glyph glyph-name="comma" unicode="," horiz-adv-x="267" 
d="M79 25v62.998c0 18 8.33301 27 25 27h60c16 0 24 -9 24 -27v-99c0 -18.667 -3.5 -34 -10.5 -46s-15.667 -20 -26 -24s-20.5 -6.66699 -30.5 -8s-18.667 -1.66602 -26 -0.999023l-11 2v36c9.33301 0 16.5 1.83301 21.5 5.5s7.83301 7.33398 8.5 11.001s1 8.16699 1 13.5
v22h-11c-7.33301 0 -13.333 2.16699 -18 6.5s-7 10.5 -7 18.5z" />
    <glyph glyph-name="hyphen" unicode="-" horiz-adv-x="354" 
d="M20 247v86h314v-86h-314z" />
    <glyph glyph-name="period" unicode="." horiz-adv-x="269" 
d="M79 23l0.000976562 66c0 16.667 8 25 24 25h62c16.667 0 25 -8.33301 25 -25v-66c0 -15.333 -8.33301 -23 -25 -23h-62c-6.66699 0 -12.334 2.16699 -17.001 6.5s-7 9.83301 -7 16.5z" />
    <glyph glyph-name="slash" unicode="/" horiz-adv-x="415" 
d="M19 -72l281 842h97l-281 -842h-97z" />
    <glyph glyph-name="zero" unicode="0" horiz-adv-x="639" 
d="M65 166v398c0 54 16.333 95.5 49 124.5s75 43.5 127 43.5h164c58.667 0 101.5 -15.5 128.5 -46.5s40.5 -70.833 40.5 -119.5v-400c0 -56.667 -14.833 -98.5 -44.5 -125.5s-71.5 -40.5 -125.5 -40.5h-164c-52 0 -94.167 13.5 -126.5 40.5s-48.5 68.833 -48.5 125.5z
M157 173c0 -30 8.83301 -51.5 26.5 -64.5s39.5 -19.5 65.5 -19.5h146c58 0 87 27.667 87 83v388c0 55.333 -28.667 83 -86 83h-148c-31.333 0 -54.333 -8 -69 -24s-22 -35.667 -22 -59v-387z" />
    <glyph glyph-name="one" unicode="1" horiz-adv-x="364" 
d="M37 584v64l161 84h92v-732h-92v633z" />
    <glyph glyph-name="two" unicode="2" horiz-adv-x="594" 
d="M37 652l0.00292969 67.999c103.333 14.667 204.666 22 303.999 22c35.333 0 66.666 -6 93.999 -18s49 -28.333 65 -49s28 -43.5 36 -68.5s12 -51.167 12 -78.5c0 -35.333 -9.66699 -73.166 -29 -113.499s-41.833 -76.166 -67.5 -107.499s-55.834 -63.333 -90.501 -96
s-63 -57.667 -85 -75s-43 -33 -63 -47h335v-89h-504v83l84 59.5c28.667 21 63.667 49 105 84s77.5 68.5 108.5 100.5s57.667 66.5 80 103.5s33.5 69.833 33.5 98.5c0 37.333 -10.333 67.166 -31 89.499s-52.667 33.5 -96 33.5h-291z" />
    <glyph glyph-name="three" unicode="3" horiz-adv-x="591" 
d="M28 645l-0.00195312 61.002c27.333 10 59.333 17.167 96 21.5s72.834 6.66602 108.501 6.99902s74.167 0.166016 115.5 -0.500977c53.333 -0.666992 95.5 -16.5 126.5 -47.5s46.5 -71.167 46.5 -120.5v-65c0 -73.333 -22.667 -119 -68 -137
c45.333 -26 68 -74.667 68 -146v-54c0 -114 -60 -171 -180 -171h-37.5h-38.5c-4.66699 0 -16 0.166992 -34 0.5s-30.333 0.666016 -37 0.999023s-17.5 1 -32.5 2s-26.667 2.16699 -35 3.5l-30.5 5c-12 2 -23 4.33301 -33 7s-19.667 5.66699 -29 9l1 62h286
c16.667 0 30.5 0.833008 41.5 2.5s21.833 5.33398 32.5 11.001s18.834 14.5 24.501 26.5s8.5 27.333 8.5 46v52c0 62.667 -33.667 95 -101 97l-231 8v72l231 10c68.667 3.33301 103 34 103 92v60c0 29.333 -9.83301 50.833 -29.5 64.5s-44.167 20.5 -73.5 20.5h-299z" />
    <glyph glyph-name="four" unicode="4" horiz-adv-x="607" 
d="M19 224l304 508h106l-273 -460h256v197l35 75h57v-272h85v-72l-85 -20v-178h-92v178h-359z" />
    <glyph glyph-name="five" unicode="5" horiz-adv-x="601" 
d="M71 20l-0.00195312 70.002h298c30.667 0 52.5 8.5 65.5 25.5s19.5 37.5 19.5 61.5v98c0 8.66699 -0.166992 16 -0.5 22s-2 13.667 -5 23s-7.33301 16.666 -13 21.999s-14 10.166 -25 14.499s-24.167 6.5 -39.5 6.5h-138c-21.333 0 -39.333 -5.83301 -54 -17.5
s-22 -29.167 -22 -52.5h-84l22 439h428v-89h-342l-11 -221c14 14.667 38.333 24 73 28c14.667 2 31 3 49 3s36.333 -0.333008 55 -1s30.334 -1.33398 35.001 -2.00098c56 -0.666992 97.333 -16.167 124 -46.5s40 -71.5 40 -123.5v-111c0 -32.667 -5.5 -60.834 -16.5 -84.501
s-25.5 -41.667 -43.5 -54s-36 -21.166 -54 -26.499s-36.333 -8 -55 -8c-68 0 -120.167 1.33301 -156.5 4s-86.166 9.33398 -149.499 20.001z" />
    <glyph glyph-name="six" unicode="6" horiz-adv-x="619" 
d="M61 384c0 63.333 4.83789 118.668 14.5049 166.001s23 84 40 110s35.167 45.167 54.5 57.5s40.333 18.833 63 19.5c101.333 2.66699 203.333 -3.66602 306 -18.999v-69h-278c-21.333 0 -39.5 -8.16699 -54.5 -24.5s-26.167 -37.833 -33.5 -64.5
s-12.333 -51.834 -15 -75.501s-4.33398 -47.834 -5.00098 -72.501c96 13.333 178 20 246 20c33.333 0 61.166 -4 83.499 -12s39.166 -19.5 50.499 -34.5s19.166 -31 23.499 -48s6.5 -36.833 6.5 -59.5v-126c0 -102 -55 -153 -165 -153h-148c-23.333 0 -44 3.33301 -62 10
s-35.333 18.5 -52 35.5s-30.334 39.667 -41.001 68s-19 65.333 -25 111s-9 99.167 -9 160.5zM153.005 345.002c0 -20 0.332031 -37.666 0.999023 -52.999s2 -33.833 4 -55.5s5.5 -40.5 10.5 -56.5s11.333 -31.333 19 -46s17.834 -26 30.501 -34s27.334 -12 44.001 -12h129
c27.333 0 47.666 5 60.999 15s20 30.333 20 61v109c0 27.333 -7.16699 46.166 -21.5 56.499s-33.833 15.5 -58.5 15.5h-239z" />
    <glyph glyph-name="seven" unicode="7" horiz-adv-x="548" 
d="M28 643v89h462l30 -52l-259 -680h-106l249 643h-376z" />
    <glyph glyph-name="eight" unicode="8" horiz-adv-x="631" 
d="M70 158l0.00195312 90.998c0 56 27.667 92.333 83 109c-30 10.667 -51.333 29 -64 55s-19 54.667 -19 86v65c0 63.333 15.667 108 47 134s75.333 39 132 39h148c55.333 0 96.666 -13.667 123.999 -41s41 -71.333 41 -132v-62c0 -8 -0.666992 -16.833 -2 -26.5
s-4.16602 -21 -8.49902 -34s-12.166 -24.667 -23.499 -35s-25 -17.166 -41 -20.499c17.333 -3.33301 32 -13.166 44 -29.499s20.167 -33.5 24.5 -51.5s6.5 -35.333 6.5 -52v-94c0 -26 -3.66699 -48.833 -11 -68.5s-16.5 -35 -27.5 -46s-24.333 -20 -40 -27
s-30.334 -11.667 -44.001 -14s-28.167 -3.5 -43.5 -3.5h-147c-33.333 -0 -61.833 4.33301 -85.5 13s-41.334 18.5 -53.001 29.5s-20.834 24.833 -27.501 41.5s-10.5 30 -11.5 40s-1.5 21.333 -1.5 34zM162.002 159.998c0 -24 7.50098 -41.999 22.501 -53.999
s38.833 -18 71.5 -18h131c23.333 0 43 6.16699 59 18.5s24 30.166 24 53.499v95c0 24.667 -7.66699 43.5 -23 56.5s-34.333 19.5 -57 19.5h-144c-24.667 0 -44.834 -6 -60.501 -18s-23.5 -31.333 -23.5 -58v-95zM162.003 493.999c0 -28 8.66797 -48 26.001 -60
s36.666 -18 57.999 -18h143c54 0 81 26 81 78v62c0 34 -6.66699 58.167 -20 72.5s-34 21.5 -62 21.5h-132c-33.333 0 -57.333 -6 -72 -18s-22 -37.333 -22 -76v-62z" />
    <glyph glyph-name="nine" unicode="9" horiz-adv-x="619" 
d="M56 459l0.00195312 124.997c0 102 55.333 153 166 153h147c23.333 0 44.166 -3.16699 62.499 -9.5s35.666 -18.166 51.999 -35.499s29.833 -40.166 40.5 -68.499s19.167 -65.166 25.5 -110.499s9.5 -99 9.5 -161c0 -63.333 -5 -118.666 -15 -165.999
s-23.5 -84 -40.5 -110s-35.167 -45.167 -54.5 -57.5s-40 -18.833 -62 -19.5c-128 -3.33301 -230.333 3 -307 19v69h279c21.333 0 39.5 8.16699 54.5 24.5s26 38 33 65s12 52.167 15 75.5s4.83301 47.666 5.5 72.999c-96 -14 -178.333 -21 -247 -21
c-32.667 0 -60.334 4 -83.001 12s-39.667 19.667 -51 35s-19.166 31.5 -23.499 48.5s-6.5 36.833 -6.5 59.5zM147.002 462.997c0 -26.667 7.16699 -45.333 21.5 -56s34.166 -16 59.499 -16h239c0 20 -0.333008 37.667 -1 53s-2.16699 34 -4.5 56s-6 40.833 -11 56.5
s-11.167 31 -18.5 46s-17.5 26.333 -30.5 34s-27.5 11.5 -43.5 11.5h-130c-27.333 0 -47.666 -5 -60.999 -15s-20 -30.333 -20 -61v-109z" />
    <glyph glyph-name="colon" unicode=":" horiz-adv-x="269" 
d="M79 23l0.000976562 66c0 16.667 8 25 24 25h62c16.667 0 25 -8.33301 25 -25v-66c0 -15.333 -8.33301 -23 -25 -23h-62c-6.66699 0 -12.334 2.16699 -17.001 6.5s-7 9.83301 -7 16.5zM79.001 441l0.000976562 66c0 16.667 8 25 24 25h62c16.667 0 25 -8.33301 25 -25v-66
c0 -15.333 -8.33301 -23 -25 -23h-62c-6.66699 0 -12.334 2 -17.001 6s-7 9.66699 -7 17z" />
    <glyph glyph-name="semicolon" unicode=";" horiz-adv-x="271" 
d="M79 25v62.999c0 7.33301 2.33301 13.666 7 18.999s10.667 8 18 8h60c8 0 14 -2.5 18 -7.5s6 -11.5 6 -19.5v-99c0 -18.667 -3.5 -34 -10.5 -46s-15.667 -20 -26 -24s-20.5 -6.66699 -30.5 -8s-18.667 -1.66602 -26 -0.999023l-11 2v36c9.33301 0 16.5 1.83301 21.5 5.5
s7.83301 7.33398 8.5 11.001s1 8.16699 1 13.5v22h-11c-6.66699 0 -12.5 2.5 -17.5 7.5s-7.5 10.833 -7.5 17.5zM81 441.999l0.000976562 66c0 16.667 8 25 24 25h62c16.667 0 25 -8.33301 25 -25v-66c0 -15.333 -8.33301 -23 -25 -23h-62c-6.66699 0 -12.334 2 -17.001 6
s-7 9.66699 -7 17z" />
    <glyph glyph-name="less" unicode="&#x3c;" horiz-adv-x="468" 
d="M47 307v93l375 158v-94l-263 -110l263 -120v-96z" />
    <glyph glyph-name="equal" unicode="=" horiz-adv-x="467" 
d="M20 204v86h427v-86h-427zM20 415v86h427v-86h-427z" />
    <glyph glyph-name="greater" unicode="&#x3e;" horiz-adv-x="468" 
d="M47 138v96l262 120l-262 110v94l375 -158v-93z" />
    <glyph glyph-name="question" unicode="?" horiz-adv-x="541" 
d="M19 649l-0.00195312 67.999l31 5l31.5 5c4.33301 0.666992 13.666 1.83398 27.999 3.50098l30.5 3.5l28 3c12.667 1.33301 23.167 2 31.5 2s18.333 0.166992 30 0.5s23.334 0.5 35.001 0.5s23.834 -0.333008 36.501 -1c36.667 0 68.5 -5.16699 95.5 -15.5
s48.167 -24.5 63.5 -42.5s26.5 -37.667 33.5 -59s10.5 -45 10.5 -71v-94c0 -64.667 -21.5 -110.667 -64.5 -138s-100.833 -36 -173.5 -26v-98h-86v171h135c27.333 1.33301 50.5 9.5 69.5 24.5s28.5 37.5 28.5 67.5v88c0 36.667 -10.167 63 -30.5 79s-53.166 24 -98.499 24
h-265zM167.998 22.999l-0.000976562 66c0 16.667 8 25 24 25h63c16 0 24 -8.33301 24 -25v-66c0 -15.333 -8 -23 -24 -23h-63c-7.33301 0 -13.166 2.16699 -17.499 6.5s-6.5 9.83301 -6.5 16.5z" />
    <glyph glyph-name="at" unicode="@" horiz-adv-x="850" 
d="M61 3v336c0 13.333 0.666992 25.833 2 37.5s5.5 26.334 12.5 44.001s16.5 32.834 28.5 45.501s29.667 23.5 53 32.5s50.666 13.5 81.999 13.5h209c20.667 0 39.667 -2.16699 57 -6.5s34 -11.5 50 -21.5s28.667 -25 38 -45s14 -43.667 14 -71v-368h-65l-16 62l-9.5 -7
c-6.33301 -4.66699 -15 -10.5 -26 -17.5s-23.167 -14 -36.5 -21s-29 -13 -47 -18s-35.333 -7.5 -52 -7.5c-38 -0.666992 -69 10.666 -93 33.999s-35.667 52.333 -35 87v50c0 42 11.5 75 34.5 99s55.833 36 98.5 36h164c0.666992 44.667 0.666992 67 0 67
c0 24.667 -6.16699 41.5 -18.5 50.5s-32.166 13.5 -59.499 13.5h-207c-13.333 0 -25 -1.16699 -35 -3.5s-19.833 -6.33301 -29.5 -12s-17 -14.834 -22 -27.501s-7.5 -28.334 -7.5 -47.001v-332c0 -69.333 31.333 -104 94 -104h345c39.333 0 66.333 8.33301 81 25
s22 43 22 79v497c0 37.333 -9.33301 65.833 -28 85.5s-43.667 29.5 -75 29.5h-404v57c90 18.667 187.333 27.667 292 27h112c56.667 -0.666992 102 -17.667 136 -51s51 -82.666 51 -147.999v-497c0 -126.667 -62 -190 -186 -190h-346c-54 0 -97.167 15.833 -129.5 47.5
s-48.5 78.167 -48.5 139.5zM313 122c0 -11.333 5.66797 -22 17.001 -32s24.666 -15 39.999 -15c40.667 0 92 17 154 51v112l-156 -15c-18 -2 -31.833 -8.5 -41.5 -19.5s-14.167 -24.833 -13.5 -41.5c-0.666992 -0.666992 -1 -7.5 -1 -20.5s0.333008 -19.5 1 -19.5z" />
    <glyph glyph-name="A" unicode="A" horiz-adv-x="676" 
d="M42 0l263 732h97l252 -732h-105l-60 193h-277l-63 -193h-107zM241 280h220l-108 320z" />
    <glyph glyph-name="B" unicode="B" horiz-adv-x="598" 
d="M75 0l0.00390625 731.998h287c35.333 0 66.166 -5.66699 92.499 -17s46.666 -26.666 60.999 -45.999s24.833 -39.666 31.5 -60.999s10 -44 10 -68c0 -89.333 -31.667 -142.666 -95 -159.999c27.333 -6 51 -23.833 71 -53.5s30 -69.5 30 -119.5
c0 -29.333 -3.33301 -55.833 -10 -79.5s-17.334 -45.334 -32.001 -65.001s-35.334 -35 -62.001 -46s-58.667 -16.5 -96 -16.5h-288zM168.004 87.998h193c73.333 0 110 40.667 110 122c0 37.333 -9.16699 68.333 -27.5 93s-45.833 37 -82.5 37h-193v-252zM168.004 425.998
l191.999 -0.000976562c34 0 60 9.33301 78 28s27 46.334 27 83.001c0 21.333 -3.16699 39.5 -9.5 54.5s-14.833 26.167 -25.5 33.5s-21.667 12.333 -33 15s-23.666 4 -36.999 4h-192v-218z" />
    <glyph glyph-name="C" unicode="C" horiz-adv-x="576" 
d="M51 368c0 49.333 2.16699 92.3301 6.5 128.997s12 70.834 23 102.501s25.667 57.5 44 77.5s41.833 35.5 70.5 46.5s62.667 16.5 102 16.5c33.333 0 73.833 -2.66699 121.5 -8s89.5 -11.666 125.5 -18.999v-73l-8.5 0.5c-5.66699 0.333008 -13.334 0.833008 -23.001 1.5
s-20.667 1.33398 -33 2.00098s-26 1.5 -41 2.5s-29.833 1.83301 -44.5 2.5s-29.834 1.16699 -45.501 1.5s-29.834 0.5 -42.501 0.5c-31.333 0 -56.666 -3.66699 -75.999 -11s-35.833 -21.5 -49.5 -42.5s-23.334 -50 -29.001 -87s-8.5 -85.167 -8.5 -144.5
c0 -43.333 2.66699 -81.333 8 -114s13.833 -62.167 25.5 -88.5s28.334 -46.333 50.001 -60s48.167 -20.5 79.5 -20.5s66.666 0.666992 105.999 2s71.333 2.33301 96 3l36 2v-73c-33.333 -6.66699 -74.166 -12.167 -122.499 -16.5s-89.833 -6.5 -124.5 -6.5
c-45.333 0 -84.166 9 -116.499 27s-57.666 44.167 -75.999 78.5s-31.833 73.333 -40.5 117s-13 94.167 -13 151.5z" />
    <glyph glyph-name="D" unicode="D" horiz-adv-x="658" 
d="M75 0v731.999h282c42.667 0 80 -8 112 -24s57 -36 75 -60s32.667 -53.167 44 -87.5s18.833 -67 22.5 -98s5.5 -64.167 5.5 -99.5c0 -37.333 -2.83301 -73 -8.5 -107s-15.167 -66.667 -28.5 -98s-29.666 -58.666 -48.999 -81.999s-43.833 -41.833 -73.5 -55.5
s-62.834 -20.5 -99.501 -20.5h-282zM167 89.999h187c39.333 0 72 12.5 98 37.5s44.5 57.5 55.5 97.5s16.5 86.333 16.5 139c0 100.667 -14.333 172.5 -43 215.5s-71 64.5 -127 64.5h-187v-554z" />
    <glyph glyph-name="E" unicode="E" horiz-adv-x="567" 
d="M74 129l0.000976562 467.003c0 49.333 13 84.666 39 105.999s58 31.333 96 30c200 -9.33301 306 -14.666 318 -15.999v-74h-309c-12.667 0 -22.667 -1.33301 -30 -4s-12.5 -7.33398 -15.5 -14.001s-4.83301 -12.334 -5.5 -17.001s-1 -11.667 -1 -21v-176l319 -11v-74
l-319 -10v-176c0 -12.667 1.66699 -22.834 5 -30.501s8.66602 -13 15.999 -16s13.5 -4.66699 18.5 -5s12.5 -0.5 22.5 -0.5h299v-73l-308 -17c-96.667 -5.33301 -145 38.667 -145 132z" />
    <glyph glyph-name="F" unicode="F" horiz-adv-x="567" 
d="M74 0l-0.000976562 595.001c0 48.667 12.833 84 38.5 106s57.834 32.333 96.501 31c200 -9.33301 306 -14.666 318 -15.999v-74h-309c-12.667 0 -22.667 -1.33301 -30 -4s-12.5 -7.33398 -15.5 -14.001s-4.83301 -12.334 -5.5 -17.001s-1 -11.667 -1 -21v-176l319 -11
v-74l-319 -10v-315h-92z" />
    <glyph glyph-name="G" unicode="G" horiz-adv-x="614" 
d="M51 370c0 44 1.83203 83.002 5.49902 117.002s10.5 67.5 20.5 100.5s23.5 60.167 40.5 81.5s39.833 38.5 68.5 51.5s62.334 19.5 101.001 19.5c34.667 0 77 -2.66699 127 -8s94.667 -12 134 -20v-73c-0.666992 0 -6.66699 0.5 -18 1.5s-26 2.16699 -44 3.5
s-37.333 2.66602 -58 3.99902s-43 2.5 -67 3.5s-45.667 1.5 -65 1.5c-25.333 0 -46.833 -3.83301 -64.5 -11.5s-32.334 -18.5 -44.001 -32.5s-20.667 -32.833 -27 -56.5s-10.833 -50 -13.5 -79s-4 -64.167 -4 -105.5c0 -107.333 11 -181.333 33 -222
s62.333 -61.334 121 -62.001c22 -0.666992 47.5 2.83301 76.5 10.5s52.5 15.5 70.5 23.5l27 12v181h-150v61c52 16.667 110 25 174 25c21.333 0 44 -1 68 -3v-394h-68l-22 49c-55.333 -35.333 -116.666 -53.333 -183.999 -54c-40 -0.666992 -74.5 5.33301 -103.5 18
s-52 29.667 -69 51s-30.5 49 -40.5 83s-16.667 68 -20 102s-5 74.333 -5 121z" />
    <glyph glyph-name="H" unicode="H" horiz-adv-x="637" 
d="M75 0v732h92v-334h323v334h92v-732h-92v310h-323v-310h-92z" />
    <glyph glyph-name="I" unicode="I" horiz-adv-x="222" 
d="M75 0v732h92v-732h-92z" />
    <glyph glyph-name="J" unicode="J" horiz-adv-x="358" 
d="M33 22l2.99707 69.001c2 -0.666992 4.66699 -1.33398 8 -2.00098c13.333 -2.66699 23.333 -4.5 30 -5.5s16.167 -2.33301 28.5 -4s21.833 -2 28.5 -1s14.834 2.33301 24.501 4s17.167 5.16699 22.5 10.5s10.833 11.666 16.5 18.999s9.66699 17 12 29s3.5 25.667 3.5 41
v550h92v-567c0 -21.333 -0.666992 -39.166 -2 -53.499s-6.16602 -31 -14.499 -50s-20.166 -33.5 -35.499 -43.5c-26.667 -16.667 -63 -24.5 -109 -23.5s-82 10.167 -108 27.5z" />
    <glyph glyph-name="K" unicode="K" horiz-adv-x="601" 
d="M75 0v732h90v-322h76l218 322h110l-245 -365l245 -367h-110l-218 322h-75v-322h-91z" />
    <glyph glyph-name="L" unicode="L" horiz-adv-x="552" 
d="M75 130l-0.00195312 602.005h92v-591c0 -12.667 1.5 -22.834 4.5 -30.501s8.33301 -12.834 16 -15.501s13.834 -4.33398 18.501 -5.00098s12.334 -1 23.001 -1h291v-89h-305c-19.333 0 -36.5 1.66699 -51.5 5s-29.667 9.16602 -44 17.499s-25.333 21.666 -33 39.999
s-11.5 40.833 -11.5 67.5z" />
    <glyph glyph-name="M" unicode="M" horiz-adv-x="813" 
d="M51 0l53 732h127l175 -579l171 579h126l60 -732h-92l-46 568l-169 -568h-98l-174 568l-41 -568h-92z" />
    <glyph glyph-name="N" unicode="N" horiz-adv-x="679" 
d="M75 0v732h94l363 -561v561h92v-732h-92l-364 560v-560h-93z" />
    <glyph glyph-name="O" unicode="O" 
d="M61 361c0 48 2.5 90.8311 7.5 128.498s11.5 69.667 19.5 96s19 48.833 33 67.5s28.333 33.334 43 44.001s32.667 19 54 25s41.5 10 60.5 12s42.167 3 69.5 3s50.833 -1 70.5 -3s40 -6 61 -12s38.667 -14.333 53 -25s28.333 -25.334 42 -44.001s24.5 -41.167 32.5 -67.5
s14.333 -58.333 19 -96s7 -80.5 7 -128.5c0 -53.333 -2.83301 -99.666 -8.5 -138.999s-14.334 -72.333 -26.001 -99s-25 -48.5 -40 -65.5s-34 -30 -57 -39s-46.167 -15 -69.5 -18s-51.333 -4.5 -84 -4.5c-28.667 0 -53 0.833008 -73 2.5s-40.833 5.5 -62.5 11.5
s-39.667 14.333 -54 25s-28.166 24.834 -41.499 42.501s-23.833 39.334 -31.5 65.001s-13.667 56.667 -18 93s-6.5 78.166 -6.5 125.499zM153 360.998c0 -40.667 1.1582 -75.334 3.49121 -104.001s7 -53.5 14 -74.5s15 -37.667 24 -50s21.333 -22.166 37 -29.499
s32.334 -12.166 50.001 -14.499s39.834 -3.5 66.501 -3.5c30.667 0 56 2.16699 76 6.5s38 12 54 23s28.333 27 37 48s15.167 47.5 19.5 79.5s6.5 71.667 6.5 119c0 28 -0.666992 53.333 -2 76s-3.5 43 -6.5 61s-6 34 -9 48s-7.5 26.167 -13.5 36.5
s-11.667 19.166 -17 26.499s-12.666 13.5 -21.999 18.5s-17.5 8.83301 -24.5 11.5s-16.667 4.66699 -29 6s-23.166 2.16602 -32.499 2.49902s-21.666 0.5 -36.999 0.5s-27.5 -0.166992 -36.5 -0.5s-19.833 -1.16602 -32.5 -2.49902s-22.5 -3.33301 -29.5 -6
s-15.167 -6.33398 -24.5 -11.001s-16.666 -10.667 -21.999 -18s-11.166 -16.166 -17.499 -26.499s-11.166 -22.5 -14.499 -36.5s-6.66602 -30 -9.99902 -48s-5.5 -38.5 -6.5 -61.5s-1.5 -48.5 -1.5 -76.5z" />
    <glyph glyph-name="P" unicode="P" horiz-adv-x="586" 
d="M58 0v731.998h304c122 0 183 -72 183 -216c0 -29.333 -2.16699 -55.833 -6.5 -79.5s-9.83301 -43.167 -16.5 -58.5s-15 -28.666 -25 -39.999s-20 -20 -30 -26s-21.667 -10.667 -35 -14s-25 -5.5 -35 -6.5s-21.667 -1.5 -35 -1.5
c-18.667 0.666992 -58 3.83398 -118 9.50098s-91.333 9.16699 -94 10.5v-310h-92zM150 377.998l209 -0.000976562c14 0 26 1.66699 36 5s19.667 9.5 29 18.5s16.333 23 21 42s7 43.167 7 72.5c-0.666992 28 -4 51.167 -10 69.5s-14.167 31.333 -24.5 39
s-19.833 12.834 -28.5 15.501s-18.667 4 -30 4h-209v-266z" />
    <glyph glyph-name="Q" unicode="Q" 
d="M61 361c0 48 2.33594 90.8311 7.00293 128.498s11 69.667 19 96s18.833 48.833 32.5 67.5s27.667 33.334 42 44.001s32.166 19 53.499 25s41.666 10 60.999 12s42.666 3 69.999 3s50.833 -1 70.5 -3s40.167 -6 61.5 -12s39.166 -14.333 53.499 -25
s28.5 -25.334 42.5 -44.001s24.833 -41.167 32.5 -67.5s14 -58.333 19 -96s7.5 -80.5 7.5 -128.5c0 -53.333 -2.83301 -99.666 -8.5 -138.999s-14.5 -72.333 -26.5 -99s-25.5 -48.5 -40.5 -65.5s-34.167 -29.833 -57.5 -38.5s-46.666 -14.667 -69.999 -18s-51.333 -5 -84 -5
c-28.667 0 -53 0.833008 -73 2.5s-40.667 5.5 -62 11.5s-39 14.333 -53 25s-27.667 24.834 -41 42.501s-23.833 39.5 -31.5 65.5s-13.667 57 -18 93s-6.5 77.667 -6.5 125zM153.003 360.998c0 -40.667 1.16016 -75.334 3.49316 -104.001s6.83301 -53.5 13.5 -74.5
s14.5 -37.667 23.5 -50s21.167 -22.166 36.5 -29.499s31.833 -12.166 49.5 -14.499s39.834 -3.5 66.501 -3.5c30.667 0 56.167 2.16699 76.5 6.5s38.666 12 54.999 23s28.666 27 36.999 48s14.833 47.5 19.5 79.5s7 71.667 7 119c0 28 -0.666992 53.333 -2 76
s-3.5 43 -6.5 61s-6 34 -9 48s-7.66699 26.167 -14 36.5s-12.166 19.166 -17.499 26.499s-12.666 13.5 -21.999 18.5s-17.666 8.83301 -24.999 11.5s-17.166 4.66699 -29.499 6s-23.166 2.16602 -32.499 2.49902s-21.666 0.5 -36.999 0.5s-27.5 -0.166992 -36.5 -0.5
s-19.667 -1.16602 -32 -2.49902s-22 -3.33301 -29 -6s-15.167 -6.33398 -24.5 -11.001s-16.666 -10.667 -21.999 -18s-11.166 -16.166 -17.499 -26.499s-11 -22.5 -14 -36.5s-6.16699 -30 -9.5 -48s-5.5 -38.5 -6.5 -61.5s-1.5 -48.5 -1.5 -76.5zM311.996 -33.002h60
c16.667 -14.667 34.667 -24.834 54 -30.501s37.5 -7.5 54.5 -5.5s36.167 6.66699 57.5 14v-89c-19.333 -8 -41.5 -11 -66.5 -9s-48.667 6.83301 -71 14.5s-41.833 20.834 -58.5 39.501s-26.667 40.667 -30 66z" />
    <glyph glyph-name="R" unicode="R" horiz-adv-x="596" 
d="M58 0l0.000976562 731.998h314c118 0 177 -74 177 -222c0 -35.333 -3.5 -66.5 -10.5 -93.5s-14.833 -47.167 -23.5 -60.5s-19.834 -24.666 -33.501 -33.999s-24 -15.166 -31 -17.499s-15.5 -4.5 -25.5 -6.5l150 -298h-101l-145 293l-179 14v-307h-92zM150.001 384.998
l218.002 -0.000976562c14.667 0 26.167 1 34.5 3s17.166 6.66699 26.499 14s16.166 19.833 20.499 37.5s6.5 41.167 6.5 70.5c0 28 -2.33301 51.333 -7 70s-11.5 32.334 -20.5 41.001s-18.167 14.667 -27.5 18s-20.333 5 -33 5h-218v-259z" />
    <glyph glyph-name="S" unicode="S" horiz-adv-x="585" 
d="M61 492l-0.0078125 64.9951c0 35.333 4.83301 65.166 14.5 89.499s23.834 42.833 42.501 55.5s39.334 21.834 62.001 27.501s49 8.5 79 8.5c30.667 0 75 -3 133 -9s100 -11.333 126 -16v-74c-28 2 -74.167 4.16699 -138.5 6.5s-101.166 3.5 -110.499 3.5
c-19.333 0.666992 -35 0.333984 -47 -0.999023s-23.833 -5 -35.5 -11s-20.167 -15.833 -25.5 -29.5s-8 -31.5 -8 -53.5v-58c0 -38 7.5 -62.5 22.5 -73.5s39.5 -16.5 73.5 -16.5h134c107.333 0 161 -59.333 161 -178v-63c0 -28.667 -4 -53.667 -12 -75
s-18.167 -38.166 -30.5 -50.499s-27.666 -22.166 -45.999 -29.499s-36.333 -12.166 -54 -14.499s-37.5 -3.5 -59.5 -3.5c-34 0 -78.667 2.83301 -134 8.5s-97 11.5 -125 17.5v74c73.333 -7.33301 157 -11 251 -11c11.333 0 21 0.333008 29 1s18 2.5 30 5.5
s22 7.16699 30 12.5s14.833 13.5 20.5 24.5s8.5 24.167 8.5 39.5v60c0 28.667 -5.66699 50.834 -17 66.501s-31.666 23.5 -60.999 23.5h-132c-31.333 0 -58.666 3.83301 -81.999 11.5s-41.166 17 -53.499 28s-22.166 25 -29.499 42s-11.833 32.667 -13.5 47
s-2.5 30.833 -2.5 49.5z" />
    <glyph glyph-name="T" unicode="T" horiz-adv-x="582" 
d="M41 643v89h517v-89h-215v-643h-92v643h-210z" />
    <glyph glyph-name="U" unicode="U" horiz-adv-x="673" 
d="M75 320l0.000976562 411.999h92v-412c0 -23.333 0.5 -44.5 1.5 -63.5s3.16699 -35.833 6.5 -50.5s6.5 -27.834 9.5 -39.501s7.5 -21.667 13.5 -30s11.5 -15.5 16.5 -21.5s12 -11 21 -15s16.833 -7 23.5 -9s15.834 -3.5 27.501 -4.5s21.5 -1.66699 29.5 -2
s19 -0.5 33 -0.5c16 0 29.5 0.333008 40.5 1s23.167 2.83398 36.5 6.50098s24.333 8.5 33 14.5s17.667 14.833 27 26.5s16.5 25.667 21.5 42s9.16699 36.833 12.5 61.5s5 52.667 5 84v412h93v-412c0 -44.667 -3.16699 -84.5 -9.5 -119.5s-13.833 -63.833 -22.5 -86.5
s-21 -41.834 -37 -57.501s-30.333 -27.5 -43 -35.5s-29.834 -14 -51.501 -18s-39 -6.33301 -52 -7s-30.833 -1 -53.5 -1h-10c-25.333 0 -44.333 0.333008 -57 1s-30.167 3 -52.5 7s-39.333 9.83301 -51 17.5s-25.167 19.334 -40.5 35.001s-26.833 34.834 -34.5 57.501
s-14.334 51.5 -20.001 86.5s-8.5 75.167 -8.5 120.5z" />
    <glyph glyph-name="V" unicode="V" 
d="M42 732h99l201 -596l210 596h99l-261 -732h-98z" />
    <glyph glyph-name="W" unicode="W" horiz-adv-x="970" 
d="M42 732h99l200 -587l167 587h102l-63 -222l128 -370l173 592h99l-221 -732h-98l-127 354l-111 -354h-98z" />
    <glyph glyph-name="X" unicode="X" horiz-adv-x="608" 
d="M42 732h101l169 -291l172 291h101l-217 -362l212 -370h-101l-167 291l-166 -291h-101l211 370z" />
    <glyph glyph-name="Y" unicode="Y" horiz-adv-x="637" 
d="M42 732h100l177 -375l195 375h100l-250 -481v-251h-92v251z" />
    <glyph glyph-name="Z" unicode="Z" horiz-adv-x="561" 
d="M33 0v89l379 554h-379v89h496v-89l-375 -554h375v-89h-496z" />
    <glyph glyph-name="bracketleft" unicode="[" horiz-adv-x="324" 
d="M79 -30l0.000976562 696c0 15.333 1.16699 30.333 3.5 45s6.66602 30.334 12.999 47.001s14.5 30.834 24.5 42.501s24 21.5 42 29.5s38.667 12 62 12h82v-86h-73c-18.667 0 -33.667 -8.33301 -45 -25s-17 -40 -17 -70v-690c0 -30 5.66699 -53.333 17 -70
s26.333 -25 45 -25h73v-86h-82c-24 0 -45.167 4.16699 -63.5 12.5s-32.5 18.666 -42.5 30.999s-18 27.166 -24 44.499s-10 33 -12 47s-3 29 -3 45z" />
    <glyph glyph-name="backslash" unicode="\" horiz-adv-x="415" 
d="M19 770h97l281 -842h-97z" />
    <glyph glyph-name="bracketright" unicode="]" horiz-adv-x="324" 
d="M19 -124h72c19.333 0 34.5 8.33301 45.5 25s16.5 40 16.5 70v690c0 30 -5.5 53.333 -16.5 70s-26.167 25 -45.5 25h-72v86h81c24 0 45 -4 63 -12s32 -17.833 42 -29.5s18.167 -25.834 24.5 -42.501s10.5 -32.334 12.5 -47.001s3 -29.667 3 -45v-696
c0 -16 -0.833008 -31 -2.5 -45s-5.5 -29.667 -11.5 -47s-14 -32.166 -24 -44.499s-24.167 -22.666 -42.5 -30.999s-39.833 -12.5 -64.5 -12.5h-81v86z" />
    <glyph glyph-name="asciicircum" unicode="^" horiz-adv-x="389" 
d="M47 531l114 131h80l102 -131h-77l-67 68l-74 -68h-78zM241 662z" />
    <glyph glyph-name="underscore" unicode="_" 
d="M20 -1v86h634v-86h-634z" />
    <glyph glyph-name="grave" unicode="`" horiz-adv-x="242" 
d="M19 666h102l103 -135h-75z" />
    <glyph glyph-name="a" unicode="a" horiz-adv-x="519" 
d="M37 129l0.000976562 57.998c0 40.667 12.167 73.5 36.5 98.5s58.5 37.5 102.5 37.5c136 -0.666992 204 -0.666992 204 0c0.666992 38 0.666992 57.333 0 58c0 28.667 -6.66699 48.667 -20 60s-33 17 -59 17c-54.667 0 -137 -3.66699 -247 -11v62
c65.333 20.667 150.333 31.334 255 32.001c49.333 0.666992 88.833 -11.833 118.5 -37.5s44.5 -66.167 44.5 -121.5v-382h-70l-22 62c-2 -2 -13 -8.16699 -33 -18.5s-47.167 -21.166 -81.5 -32.499s-64.5 -17 -90.5 -17c-40.667 0.666992 -73.834 13.167 -99.501 37.5
s-38.5 56.833 -38.5 97.5zM129.001 137.998c0 -40 19.001 -60 57.001 -60c22 0 49.167 4.16699 81.5 12.5s59.166 16.5 80.499 24.5l32 12v130l-196 -14c-36.667 -3.33301 -55 -24 -55 -62v-43z" />
    <glyph glyph-name="b" unicode="b" horiz-adv-x="554" 
d="M56 0l0.000976562 784.999h90v-285c28.667 12 61 21.5 97 28.5s66.333 10.5 91 10.5c28.667 0 53.667 -5.16699 75 -15.5s38.333 -23.666 51 -39.999s22.667 -37 30 -62s12.166 -49.667 14.499 -74s3.5 -52.5 3.5 -84.5c0 -179.333 -58 -269 -174 -269
c-30 0 -64.333 7.33301 -103 22s-66.667 28.667 -84 42l-21 -58h-70zM147.001 122.999c63.333 -28.667 122.335 -43.002 177.002 -43.002c61.333 0 92 61.333 92 184c0 50.667 -3.83301 90.334 -11.5 119.001s-17.834 47.834 -30.501 57.501s-29.334 14.5 -50.001 14.5
c-60 0 -119 -8 -177 -24v-308z" />
    <glyph glyph-name="c" unicode="c" horiz-adv-x="498" 
d="M47 266c0 44.667 2.83203 83.1641 8.49902 115.497s13.334 58.333 23.001 78s22.167 35.334 37.5 47.001s31.333 19.5 48 23.5s36 6 58 6c28 0 64.833 -2.5 110.5 -7.5s86.167 -11.833 121.5 -20.5v-62c-84.667 4 -156.667 6 -216 6
c-14.667 0 -26.167 -0.833008 -34.5 -2.5s-17.166 -5.83398 -26.499 -12.501s-16.5 -16.667 -21.5 -30s-9 -32 -12 -56s-4.5 -53.667 -4.5 -89c0 -49.333 3.33301 -87.166 10 -113.499s16.834 -44.333 30.501 -54s33.167 -14.5 58.5 -14.5
c27.333 0 59.666 0.833008 96.999 2.5s67.666 3.16699 90.999 4.5l35 3v-65c-36 -12 -71.833 -19.833 -107.5 -23.5s-79.5 -5.83398 -131.5 -6.50098c-21.333 0 -40.166 2 -56.499 6s-32.333 11.833 -48 23.5s-28.334 27.334 -38.001 47.001s-17.5 45.834 -23.5 78.501
s-9 71.334 -9 116.001z" />
    <glyph glyph-name="d" unicode="d" horiz-adv-x="554" 
d="M47 263c0 32 1.16602 60.333 3.49902 85s7.16602 49.5 14.499 74.5s17.333 45.5 30 61.5s29.667 29.167 51 39.5s46.333 15.5 75 15.5c24.667 0 54.834 -3.5 90.501 -10.5s67.834 -16.5 96.501 -28.5v285h91v-785h-70l-21 58c-17.333 -13.333 -45.333 -27.333 -84 -42
s-73 -22 -103 -22c-116 0 -174 89.667 -174 269zM138.999 264c0 -122.667 30.6689 -183.998 92.002 -183.998c54.667 0 113.667 14.333 177 43v308c-58 16 -117 24 -177 24c-20.667 0 -37.334 -4.83301 -50.001 -14.5s-22.834 -28.834 -30.501 -57.501
s-11.5 -68.334 -11.5 -119.001z" />
    <glyph glyph-name="e" unicode="e" horiz-adv-x="525" 
d="M47 268c0 39.333 1.66797 73.167 5.00098 101.5s9.33301 52.333 18 72s18.667 35.667 30 48s26.5 21.833 45.5 28.5s38.5 11.167 58.5 13.5s45 3.5 75 3.5c21.333 0 39.166 -0.333008 53.499 -1s29.5 -2.5 45.5 -5.5s29 -7.16699 39 -12.5s20 -12.666 30 -21.999
s17.667 -20.666 23 -33.999s9.66602 -29.5 12.999 -48.5s5 -41.167 5 -66.5c0 -83.333 -46.667 -125 -140 -125h-209c0 -56.667 7.33301 -94.334 22 -113.001s42 -28 82 -28c110 0 188.333 3.66699 235 11v-67c-61.333 -18.667 -146.666 -28 -255.999 -28
c-67.333 0 -113.333 19.667 -138 59s-37 110.666 -37 213.999zM139.001 301.001l198.999 -0.00488281c38.667 0 58 15.333 58 46c0 25.333 -1.33301 44.333 -4 57s-8.5 22.834 -17.5 30.501s-20.167 12.5 -33.5 14.5s-33 3 -59 3c-16 0 -28 -0.166992 -36 -0.5
s-17.833 -1.16602 -29.5 -2.49902s-20.167 -3.16602 -25.5 -5.49902s-11.666 -6 -18.999 -11s-12.5 -11.167 -15.5 -18.5s-6.16699 -16.166 -9.5 -26.499s-5.5 -22.666 -6.5 -36.999s-1.5 -30.833 -1.5 -49.5z" />
    <glyph glyph-name="f" unicode="f" horiz-adv-x="401" 
d="M19 448l0.000976562 66.001l93 17v99c0 15.333 0.666992 29.166 2 41.499s4.66602 26 9.99902 41s12.5 27.5 21.5 37.5s22 18.5 39 25.5s36.833 10.5 59.5 10.5c44 0 90 -8 138 -24v-58l-115 1c-15.333 0 -27.333 -1.66699 -36 -5s-15 -9.5 -19 -18.5
s-6.33301 -17.5 -7 -25.5s-1 -19.667 -1 -35v-90h140v-83h-140v-448h-92v448h-93z" />
    <glyph glyph-name="g" unicode="g" horiz-adv-x="555" 
d="M45 112c0 19.333 4.99902 37.3301 14.999 53.9971s24.667 27.334 44 32.001c-20 12.667 -34.667 32.5 -44 59.5s-14 55.833 -14 86.5c0 62.667 15.333 109.834 46 141.501s74 47.5 130 47.5h315v-63l-75 -18c0.666992 -1.33301 3 -5.66602 7 -12.999
s6.66699 -12.833 8 -16.5s3.33301 -9.83398 6 -18.501s4.5 -18.167 5.5 -28.5s1.5 -22.166 1.5 -35.499c0 -15.333 -1.16699 -30.5 -3.5 -45.5s-7.16602 -31.5 -14.499 -49.5s-17 -33.833 -29 -47.5s-28.5 -25.167 -49.5 -34.5s-45.167 -14 -72.5 -14h-147
c-27.333 0 -41 -9.33301 -41 -28c0 -21.333 13.667 -32 41 -32h199c43.333 0 77 -12.667 101 -38s36 -60.333 36 -105v-62c0 -14.667 -1.16699 -28.334 -3.5 -41.001s-6.83301 -26.167 -13.5 -40.5s-15.5 -26.666 -26.5 -36.999s-26 -18.833 -45 -25.5
s-41.167 -10 -66.5 -10h-150c-48.667 0 -87.667 13 -117 39s-44 64.333 -44 115v80l41 61c-26.667 18 -40 47 -40 87zM135.999 -111.003c0 -16 2.33105 -29.332 6.99805 -39.999s11.334 -18.334 20.001 -23.001s17 -7.83398 25 -9.50098s17.333 -2.5 28 -2.5h131
c26.667 0 45.167 6.5 55.5 19.5s15.5 31.167 15.5 54.5v53c0 22.667 -4.33301 38.834 -13 48.501s-25.667 14.5 -51 14.5h-174c-8 0 -15.667 0.5 -23 1.5s-12.666 2.16699 -15.999 3.5l-5 2v-122zM137.997 343.998c0 -14 1.16602 -26.832 3.49902 -38.499
s6.5 -23.167 12.5 -34.5s14.833 -20.5 26.5 -27.5s25.834 -10.5 42.501 -10.5h86c17.333 0 32.333 3.5 45 10.5s22 16.167 28 27.5s10.333 23.166 13 35.499s3.66699 24.833 3 37.5c-1.33301 36 -8.33301 62.333 -21 79s-35.667 25 -69 25h-80c-60 0 -90 -34.667 -90 -104z
" />
    <glyph glyph-name="h" unicode="h" horiz-adv-x="545" 
d="M56 0v784h92v-314l16.5 10.5c9 5.66699 14.667 9.16699 17 10.5l16 9.5c8.33301 5 14.333 8.16699 18 9.5s9.5 3.83301 17.5 7.5s14.333 6.33398 19 8.00098s10.834 3.66699 18.501 6s14.667 4 21 5s13.5 1.83301 21.5 2.5s16 1 24 1c52 0 92 -16.833 120 -50.5
s42 -74.834 42 -123.501v-366h-92v366c0 30 -7.33301 52.5 -22 67.5s-34.334 22.5 -59.001 22.5c-34 0 -62.333 -4 -85 -12s-53.667 -22 -93 -42v-402h-92z" />
    <glyph glyph-name="i" unicode="i" horiz-adv-x="205" 
d="M47 615l-0.000976562 63c0 17.333 8 26 24 26h65c7.33301 0 13 -2.5 17 -7.5s6 -11.167 6 -18.5v-63c0 -15.333 -7.66699 -23 -23 -23h-65c-7.33301 0 -13.166 2.16699 -17.499 6.5s-6.5 9.83301 -6.5 16.5zM54.999 0v531h92v-531h-92z" />
    <glyph glyph-name="j" unicode="j" horiz-adv-x="224" 
d="M56 615l-0.000976562 63c0 17.333 8 26 24 26h65c7.33301 0 13 -2.5 17 -7.5s6 -11.167 6 -18.5v-63c0 -15.333 -7.66699 -23 -23 -23h-65c-7.33301 0 -13.166 2.16699 -17.499 6.5s-6.5 9.83301 -6.5 16.5zM65.999 -270l0.000976562 801.001h92v-535
c1.33301 -118.667 -8.33398 -207.334 -29.001 -266.001h-63z" />
    <glyph glyph-name="k" unicode="k" horiz-adv-x="515" 
d="M56 0v782h92v-437h37l189 186h123l-226 -227l226 -304h-112l-200 262h-37v-262h-92z" />
    <glyph glyph-name="l" unicode="l" horiz-adv-x="303" 
d="M56 189l-0.000976562 593.999h92v-588c0 -39.333 4.5 -66.666 13.5 -81.999s22.5 -25.333 40.5 -30c50.667 -14 78.334 -21 83.001 -21v-62h-95c-89.333 0 -134 63 -134 189z" />
    <glyph glyph-name="m" unicode="m" horiz-adv-x="891" 
d="M56 0l0.00195312 531.003h69l23 -62l20.5 12.5l21.5 13c4 2.33301 10.667 6 20 11s16.5 8.5 21.5 10.5l21 8.5c9 3.66699 17.167 6.16699 24.5 7.5s15.666 2.5 24.999 3.5s19 1.5 29 1.5c32.667 0 62 -6.66699 88 -20s44.667 -31.666 56 -54.999c62.667 50 132 75 208 75
c48.667 0 87.834 -16.167 117.501 -48.5s44.5 -74.5 44.5 -126.5v-362h-92v363c0 27.333 -7.5 49.166 -22.5 65.499s-34.5 24.5 -58.5 24.5c-36.667 0 -68.334 -3.83301 -95.001 -11.5s-54.334 -21.167 -83.001 -40.5v-19v-18v-364h-92v363
c0 27.333 -7.66699 49.166 -23 65.499s-35 24.5 -59 24.5c-22.667 0 -43.667 -2.33301 -63 -7s-35.5 -9.83398 -48.5 -15.501s-33.167 -15.834 -60.5 -30.501v-400h-92z" />
    <glyph glyph-name="n" unicode="n" horiz-adv-x="545" 
d="M56 0l0.00195312 531.001h69l23 -61l16.5 10.5c9 5.66699 14.833 9.16699 17.5 10.5s8.16699 4.5 16.5 9.5s14.166 8.16699 17.499 9.5s9 4 17 8s14.333 6.66699 19 8l18.5 5.5c7.66699 2.33301 14.667 4 21 5s13.5 1.83301 21.5 2.5s16 1 24 1
c52 0 92 -16.833 120 -50.5s42 -74.834 42 -123.501v-366h-92v366c0 30 -7.33301 52.5 -22 67.5s-34.334 22.5 -59.001 22.5c-34 0 -62.333 -4 -85 -12s-53.667 -22 -93 -42v-402h-92z" />
    <glyph glyph-name="o" unicode="o" horiz-adv-x="565" 
d="M47 258c0 72.667 7.66797 129 23.001 169s39.666 68.167 72.999 84.5s80 24.5 140 24.5c90 0 151.833 -20 185.5 -60s50.5 -112.667 50.5 -218c0 -99.333 -16.833 -168 -50.5 -206s-95.5 -57 -185.5 -57c-88.667 0 -150.167 19.667 -184.5 59s-51.5 107.333 -51.5 204z
M139.001 258c0 -27.333 1.16602 -51.001 3.49902 -71.001s6.5 -36.5 12.5 -49.5s12.5 -23.333 19.5 -31s16.667 -13.5 29 -17.5s24.166 -6.5 35.499 -7.5s26 -1.5 44 -1.5c22.667 0 40.667 0.833008 54 2.5s26.5 5.66699 39.5 12s22.667 16 29 29s11.5 30.5 15.5 52.5
s6 49.333 6 82c0 30 -1 55.5 -3 76.5s-5.66699 38.667 -11 53s-11.166 25.666 -17.499 33.999s-15.5 14.833 -27.5 19.5s-24.167 7.66699 -36.5 9s-28.5 2 -48.5 2c-19.333 0 -35 -0.666992 -47 -2s-24.167 -4.16602 -36.5 -8.49902s-21.666 -10.666 -27.999 -18.999
s-12.333 -19.833 -18 -34.5s-9.5 -32.5 -11.5 -53.5s-3 -46.5 -3 -76.5z" />
    <glyph glyph-name="p" unicode="p" horiz-adv-x="554" 
d="M56 -270l-0.00195312 800.998h70l21 -57c16.667 12.667 44.5 26.334 83.5 41.001s73.5 22 103.5 22c27.333 0 51.333 -5.16699 72 -15.5s37.334 -23.833 50.001 -40.5s23 -37 31 -61s13.5 -48.167 16.5 -72.5s4.5 -50.833 4.5 -79.5
c0 -31.333 -1.16699 -59.166 -3.5 -83.499s-7.16602 -49 -14.499 -74s-17.333 -45.833 -30 -62.5s-29.667 -30.167 -51 -40.5s-46.333 -15.5 -75 -15.5c-24.667 0 -55 3.5 -91 10.5s-68.333 16.167 -97 27.5v-300h-90zM146.998 99.998
c57.333 -16 116.331 -24.001 176.998 -24.001c20.667 0 37.334 4.83301 50.001 14.5s22.834 28.834 30.501 57.501s11.5 68 11.5 118c0 123.333 -30.667 185 -92 185c-55.333 0 -114.333 -14.333 -177 -43v-308z" />
    <glyph glyph-name="q" unicode="q" horiz-adv-x="555" 
d="M47 268c0 87.333 15.668 154 47.001 200s78 69 140 69c57.333 0 145.666 -8.33301 264.999 -25v-782h-92v299c-27.333 -12.667 -57 -22.334 -89 -29.001s-60 -10 -84 -10c-30 0 -56.167 4.5 -78.5 13.5s-40.333 21.333 -54 37s-24.667 35.5 -33 59.5s-14 49.333 -17 76
s-4.5 57.334 -4.5 92.001zM139.001 269v-6.99902v-38.5c0 -9 0.666992 -21.333 2 -37s3.16602 -27.834 5.49902 -36.501s6 -18.5 11 -29.5s11 -19.333 18 -25s16 -10.667 27 -15s23.833 -6.5 38.5 -6.5c32.667 0 59.5 1.5 80.5 4.5s49.5 9.5 85.5 19.5v356h-166
c-16 0 -30 -3 -42 -9s-21.667 -14.5 -29 -25.5s-13.166 -22.333 -17.499 -34s-7.5 -25.5 -9.5 -41.5s-3.16699 -29 -3.5 -39s-0.5 -22 -0.5 -36z" />
    <glyph glyph-name="r" unicode="r" horiz-adv-x="423" 
d="M56 0l0.000976562 531h70l22 -67l9 6c22.667 14.667 40.667 25.667 54 33s31.333 14.833 54 22.5s45.667 11.5 69 11.5c35.333 0 58.666 -2.66699 69.999 -8v-90c-17.333 3.33301 -42.333 5 -75 5c-35.333 0 -65.5 -4.16699 -90.5 -12.5s-55.167 -23.5 -90.5 -45.5v-386
h-92z" />
    <glyph glyph-name="s" unicode="s" horiz-adv-x="506" 
d="M37 355l0.000976562 46.002c0 43.333 10.667 76.666 32 99.999s56.666 35 105.999 35c36 0 83.833 -2 143.5 -6s100.834 -8.33301 123.501 -13v-66h-255c-25.333 0 -41.333 -4 -48 -12s-10 -21.333 -10 -40v-40c0 -22.667 4.66699 -36.834 14 -42.501s24 -8.5 44 -8.5
h149c44 0 77.167 -12 99.5 -36s33.5 -56 33.5 -96v-50c0 -87.333 -43.333 -131 -130 -131c-34 0 -84.667 2.5 -152 7.5s-110 9.83301 -128 14.5v64h268c33.333 0 50 16 50 48v42c0 17.333 -3.66699 30 -11 38s-20.333 12 -39 12h-149
c-48.667 0 -84.334 9.83301 -107.001 29.5s-34 54.5 -34 104.5z" />
    <glyph glyph-name="t" unicode="t" horiz-adv-x="379" 
d="M19 449l-0.000976562 61.999l95 21l20 148h72v-148h145v-83h-145v-253c0 -39.333 4.5 -66.666 13.5 -81.999s22.5 -25.333 40.5 -30c50.667 -14 78.334 -21 83.001 -21v-62h-97c-88 0 -132 63 -132 189v259h-95z" />
    <glyph glyph-name="u" unicode="u" horiz-adv-x="545" 
d="M47 166l-0.00195312 364.998h92v-366c0 -30 7.33301 -52.333 22 -67s34.334 -22 59.001 -22c34 0 62.333 3.83301 85 11.5s53.667 21.834 93 42.501v401h92v-531h-69l-23 60c-4 -2 -12 -6.66699 -24 -14s-20.5 -12.166 -25.5 -14.499s-12.833 -6.33301 -23.5 -12
s-19.5 -9.66699 -26.5 -12l-26 -8.5c-10.333 -3.33301 -20.666 -5.5 -30.999 -6.5s-21.166 -1.5 -32.499 -1.5c-52.667 0 -92.834 16.833 -120.501 50.5s-41.5 75.167 -41.5 124.5z" />
    <glyph glyph-name="v" unicode="v" horiz-adv-x="543" 
d="M19 531h99l153 -407l155 407h99l-207 -531h-97z" />
    <glyph glyph-name="w" unicode="w" horiz-adv-x="807" 
d="M19 531h99l144 -407l126 407h96l-49 -163l108 -244l147 407h99l-194 -531h-97l-107 242l-80 -242h-101z" />
    <glyph glyph-name="x" unicode="x" horiz-adv-x="537" 
d="M22 0l190 266l-190 265h113l132 -192l135 192h113l-192 -268l184 -263h-105l-133 190l-133 -190h-114z" />
    <glyph glyph-name="y" unicode="y" horiz-adv-x="560" 
d="M20 531l98.998 0.000976562l118 -403c2 -6 4.33301 -11.167 7 -15.5s5.33398 -8 8.00098 -11s5.5 -5.5 8.5 -7.5s6 -3.5 9 -4.5s6 -1.66699 9 -2s5.83301 -0.5 8.5 -0.5s4.83398 0.166992 6.50098 0.5s3.16699 0.666016 4.5 0.999023l2 0.5l140 442h100l-221 -699
l-74 -102h-61l89 270c-64 0 -107.333 39 -130 117z" />
    <glyph glyph-name="z" unicode="z" horiz-adv-x="460" 
d="M28 445v86h405v-86l-269 -358h269v-86h-390v86l275 358h-290z" />
    <glyph glyph-name="braceleft" unicode="{" horiz-adv-x="320" 
d="M19 295l0.00195312 77.002c1.33301 0 3.33301 0.333008 6 1c12 0.666992 21.167 1.66699 27.5 3s14.166 3.66602 23.499 6.99902s16.333 8.5 21 15.5s7 15.833 7 26.5v231c0 53.333 16.667 97.666 50 132.999s82.666 53 147.999 53v-86
c-34 0 -60.167 -8.16699 -78.5 -24.5s-27.5 -45.5 -27.5 -87.5v-221c0 -24.667 -8 -44.5 -24 -59.5s-37.333 -24.833 -64 -29.5c26 -4 47 -13.833 63 -29.5s24 -34.5 24 -56.5v-276c0 -32 9.5 -56.667 28.5 -74s45.167 -25.333 78.5 -24v-84
c-36.667 0 -68.5 4.83301 -95.5 14.5s-47.667 23 -62 40s-24.833 35.167 -31.5 54.5s-10 40.333 -10 63v280c0 18.667 -8.5 32.5 -25.5 41.5s-36.5 12.833 -58.5 11.5z" />
    <glyph glyph-name="bar" unicode="|" horiz-adv-x="245" 
d="M80 -72v842h86v-842h-86z" />
    <glyph glyph-name="braceright" unicode="}" horiz-adv-x="320" 
d="M19 -126c33.333 -1.33301 59.334 6.66504 78.001 23.998s28 42 28 74v276c0 22 8.16699 40.833 24.5 56.5s37.166 25.5 62.499 29.5c-26.667 4.66699 -48 14.5 -64 29.5s-24 34.833 -24 59.5v221c0 42 -9.16699 71.167 -27.5 87.5s-44.166 24.5 -77.499 24.5v86
c64.667 0 113.667 -17.667 147 -53s50 -79.666 50 -132.999v-231c0 -10.667 2.33301 -19.5 7 -26.5s11.667 -12.167 21 -15.5s17.333 -5.66602 24 -6.99902s15.667 -2.33301 27 -3c2.66699 -0.666992 5 -1 7 -1v-77c-22.667 1.33301 -42.5 -2.5 -59.5 -11.5
s-25.5 -22.833 -25.5 -41.5v-280c0 -22.667 -3.33301 -43.667 -10 -63s-17.167 -37.5 -31.5 -54.5s-34.833 -30.333 -61.5 -40s-58.334 -14.5 -95.001 -14.5v84z" />
    <glyph glyph-name="asciitilde" unicode="~" horiz-adv-x="432" 
d="M47 576c4 3.33301 10.999 9.66895 20.999 19.002s17.333 16 22 20s11.334 8.83301 20.001 14.5s17.334 9.66699 26.001 12s18.334 3.5 29.001 3.5c14.667 0 32.667 -5.83301 54 -17.5s38.666 -17.5 51.999 -17.5c6 0 12.333 0.666992 19 2s12 2.66602 16 3.99902
s9.5 3.83301 16.5 7.5s11.667 6.16699 14 7.5s7.16602 4.66602 14.499 9.99902s11.666 8.33301 12.999 9l22 -47l-15.5 -16.5c-10.333 -11 -17.5 -18 -21.5 -21l-20.5 -15.5c-9.66699 -7.33301 -19 -12.333 -28 -15s-18.5 -4 -28.5 -4c-15.333 0 -34.5 5.83301 -57.5 17.5
s-40.5 17.5 -52.5 17.5s-22.667 -1.5 -32 -4.5s-20.166 -8.16699 -32.499 -15.5s-21.833 -12.333 -28.5 -15z" />
    <glyph glyph-name=".null" horiz-adv-x="0" 
 />
    </font>
</defs>
</svg>
